<svg viewBox="0 0 102.08 10.89" xmlns="http://www.w3.org/2000/svg"><path d="M102.08 7.1V5.78L97.72 2v2l2.91 2.5-2.91 2.44v1.95zM1.47 1.85v2.56h2.82v1.45H1.47v4.36H0V.41h6.32v1.44zm7.62.06A.94.94 0 0 1 8.15 1a.93.93 0 1 1 .94.92zm-.73 8.31V2.86H9.8v7.35zm8.46-.01V6.05c0-1.49-.56-2-1.51-2s-1.51.69-1.51 1.88v4.3h-1.45V2.86h1.44v.7a2.25 2.25 0 0 1 1.85-.85c1.71 0 2.62 1.12 2.62 3.29v4.22zm8.28 0v-.7a2.8 2.8 0 0 1-1.92.85c-1.58 0-2.83-1.15-2.83-4 0-2.52 1.37-3.71 2.9-3.71a2.61 2.61 0 0 1 1.85.84V.74L26.53 0v10.21zm0-5.21a2.35 2.35 0 0 0-1.7-1c-1 0-1.6.79-1.6 2.34 0 1.85.59 2.66 1.65 2.66a2.26 2.26 0 0 0 1.67-.94zM36 10.37c-1.85 0-3.24-1.53-3.24-3.82s1.46-3.85 3.3-3.85 3.28 1.5 3.28 3.8-1.43 3.87-3.34 3.87zm0-6.29c-1.09 0-1.76 1-1.76 2.42 0 1.61.76 2.5 1.84 2.5s1.81-1.11 1.81-2.45c0-1.55-.72-2.47-1.89-2.47zm9.88 6.13v-.7a2.25 2.25 0 0 1-1.85.85c-1.71 0-2.62-1.12-2.62-3.29V2.86h1.44V7c0 1.48.56 2 1.51 2s1.51-.69 1.51-1.88V2.86h1.44v7.35zm7.43-.21a2.94 2.94 0 0 1-1.42.34c-1 0-1.65-.63-1.65-1.95V4.17H49.2V2.86h1.05V.76L51.66 0v2.86h1.82v1.31h-1.82v4c0 .69.22.88.76.88a2.31 2.31 0 0 0 1.06-.29zm15.15.21V6.05c0-1.49-.46-2-1.42-2s-1.42.69-1.42 1.88v4.3h-1.43V6.05c0-1.49-.46-2-1.42-2s-1.42.69-1.42 1.88v4.3h-1.43V2.86h1.44v.7a2.06 2.06 0 0 1 1.75-.85 2.1 2.1 0 0 1 2 1.08 2.57 2.57 0 0 1 2.28-1.09c1.71 0 2.52 1.12 2.52 3.29v4.22zm6.75.16c-1.85 0-3.21-1.53-3.21-3.83s1.4-3.84 3.25-3.84 3.28 1.5 3.28 3.8-1.43 3.87-3.32 3.87zm0-6.29c-1.09 0-1.76 1-1.76 2.42 0 1.61.74 2.49 1.83 2.49s1.81-1.11 1.81-2.45c-.02-1.54-.73-2.46-1.9-2.46zm9.44.3a2.15 2.15 0 0 0-1.11-.27c-.91 0-1.44.64-1.44 1.89v4.2h-1.45V2.86h1.45v.7a2 2 0 0 1 1.68-.85A2.13 2.13 0 0 1 85 3zM92.43 7h-4.86c.15 1.42 1 2 1.85 2A2.58 2.58 0 0 0 91 8.47l.85.92a3.42 3.42 0 0 1-2.54 1c-1.72 0-3.18-1.39-3.18-3.82s1.34-3.87 3.25-3.87c2.09 0 3.1 1.69 3.1 3.68-.01.27-.03.51-.05.62zm-3.15-3c-1 0-1.55.67-1.68 1.85H91c-.05-1-.53-1.85-1.72-1.85z" fill="#fff"/></svg>