<svg id="Layer_1" data-name="Layer 1" xmlns="http://www.w3.org/2000/svg" width="463.15" height="110.6" viewBox="0 0 463.15 110.6"><defs><style>.cls-1{fill:#fff}</style></defs><title>cx8Logo</title><path class="cls-1" d="M80.07 0h15.15a7 7 0 0 1 3.41.69 2.19 2.19 0 0 1 1.22 2 4.85 4.85 0 0 1-.8 2.37l-.76 1.25A5.14 5.14 0 0 1 96.81 8a5 5 0 0 1-2.44.83 2.87 2.87 0 0 1 1.47.82 2.16 2.16 0 0 1 .53 1.49 3.89 3.89 0 0 1-.18 1.12 5.76 5.76 0 0 1-.6 1.27l-.78 1.3a6.2 6.2 0 0 1-1.24 1.52 5.83 5.83 0 0 1-1.73 1.07 9.7 9.7 0 0 1-2.4.64 22.21 22.21 0 0 1-3.26.21H69.56zm6.83 14.4a5.48 5.48 0 0 0 1.86-.26 2.25 2.25 0 0 0 1.21-1l.24-.39a3.25 3.25 0 0 0 .54-1.4c0-.47-.44-.7-1.32-.7h-7a8.39 8.39 0 0 0-1.44.1 3.16 3.16 0 0 0-1 .35 3.13 3.13 0 0 0-.77.64 6.14 6.14 0 0 0-.65.94l-1 1.76zm3.38-7.61a3.75 3.75 0 0 0 1.64-.28 2.18 2.18 0 0 0 .94-.87l.31-.57c.24-.4.29-.71.14-.92a1 1 0 0 0-.89-.33h-8.71L81.6 7.46A3.57 3.57 0 0 1 82.89 7a10.1 10.1 0 0 1 1-.13h1.44zM105.31 0h12.35a8.91 8.91 0 0 1 4.34.88 2.86 2.86 0 0 1 1.55 2.63 7 7 0 0 1-1.14 3.41l-1 1.66a10.07 10.07 0 0 1-1.1 1.52 6.52 6.52 0 0 1-1.31 1.15 8.37 8.37 0 0 1-1.73.81 11.39 11.39 0 0 1-2.24.52l2.84 5.65H112l-2.71-5.44h-2.78a8.27 8.27 0 0 0-1.44.11 3.07 3.07 0 0 0-1 .35 2.84 2.84 0 0 0-.76.63 5.94 5.94 0 0 0-.65.94l-2 3.41h-5.85zm6.76 9h1.52a3.65 3.65 0 0 0 1.12-.22 2.63 2.63 0 0 0 .86-.53 4.55 4.55 0 0 0 .74-.95l.6-1a5.35 5.35 0 0 0 .44-.85 2 2 0 0 0 .16-.71.71.71 0 0 0-.32-.61 2 2 0 0 0-1.06-.22H109l-3.4 5.74a3 3 0 0 1 .54-.29 3.43 3.43 0 0 1 .74-.21c.29-.05.64-.09 1-.13s.89 0 1.45 0z"/><path class="cls-1" d="M138.8 0h3.56l1.35 18.23h-5.59l-.18-3.49H130a8.48 8.48 0 0 0-2 .22 4.13 4.13 0 0 0-1.58.82l-2.94 2.45h-6.65zm-1.07 11.44l-.26-5-6.65 5.69a3.56 3.56 0 0 1 1.65-.57 16.84 16.84 0 0 1 2.14-.13zM154.35 0h4.34l6 11.67L171.46 0h5.59l-10.53 18.23h-4.27l-6-11.68-6.79 11.68h-5.59zm25.81 0h11.45a17.09 17.09 0 0 1 3.87.38 7.87 7.87 0 0 1 2.57 1A4.15 4.15 0 0 1 199.5 3a4.43 4.43 0 0 1 .5 2 7.31 7.31 0 0 1-.45 2.44 14 14 0 0 1-1.29 2.6l-.91 1.48a19.12 19.12 0 0 1-2.47 3.3 9.36 9.36 0 0 1-3 2.07 14.33 14.33 0 0 1-4 1.07 46.64 46.64 0 0 1-5.78.3h-12.4zm3.67 14.4a12.14 12.14 0 0 0 4.75-.85 7.53 7.53 0 0 0 3.39-3.1l.44-.7a12 12 0 0 0 1.09-2.13 4.6 4.6 0 0 0 .34-1.62 1.75 1.75 0 0 0-1-1.71 6.51 6.51 0 0 0-2.81-.5h-6.21L177.7 14.4zm19.5-7.46h11.16L212 11h-11.16zM221.79 0h4.34l6 11.67L238.9 0h5.59L234 18.23h-4.3l-6-11.68-6.78 11.68h-5.59zm25.82 0H267l-2.21 3.82h-13.54l-2.08 3.59a5.85 5.85 0 0 1 .56-.29 3.54 3.54 0 0 1 .74-.2 8.39 8.39 0 0 1 1-.13c.4 0 .87-.06 1.43-.06h8.5l-2.21 3.83h-9.18a8.39 8.39 0 0 0-1.44.1 3.16 3.16 0 0 0-1 .35 3 3 0 0 0-.77.64 5.83 5.83 0 0 0-.65.93l-1 1.82h14.72l-2.21 3.83h-20.55zm20.69 0h5.52l-2.16 11.1L282.4 0h4.5l-1.67 11.1L295.55 0h6.24l-17.55 18.23h-5.07l1.74-11.08L270 18.23h-5zm45.63 0h5.33l1.62 12.64L336.32 0h6.6L332.4 18.23h-5.86L332.47 8l-12.19 10.23h-3.85L315 8l-6 10.25h-5.64zm24.89 10.74A6.69 6.69 0 0 1 340.18 9a6.26 6.26 0 0 1 1.76-1.11 8.84 8.84 0 0 1 2.27-.6 21.51 21.51 0 0 1 3-.18h7.67a11.2 11.2 0 0 0 1.43-.08 4.23 4.23 0 0 0 1-.23 2.18 2.18 0 0 0 .64-.39 2.33 2.33 0 0 0 .43-.55 2.65 2.65 0 0 0 .44-1.19.69.69 0 0 0-.58-.73 5.68 5.68 0 0 0-1.5-.16h-12.33L346.67 0h11.05a18.28 18.28 0 0 1 2.62.18 7.52 7.52 0 0 1 2.19.63A3.89 3.89 0 0 1 364 2a2.84 2.84 0 0 1 .56 1.82 5.82 5.82 0 0 1-.32 1.76 11.9 11.9 0 0 1-1.04 2.22l-6.05 10.43h-14a10.63 10.63 0 0 1-4.44-.77A2.56 2.56 0 0 1 337.1 15a6.54 6.54 0 0 1 1.09-3.14zm14.61 3.66l2.57-4.21a3.79 3.79 0 0 1-.57.29 4.77 4.77 0 0 1-.76.21c-.29.05-.64.09-1 .13s-.87 0-1.43 0h-5.53a4.48 4.48 0 0 0-1.76.26 2 2 0 0 0-.9.83l-.49.81a1.66 1.66 0 0 0-.34.88.61.61 0 0 0 .48.6 4.6 4.6 0 0 0 1.32.15zm6.97 1.54l18.9-12.12h-12.4L369.11 0h21.45l-1.33 2.29-18.9 12.11h13.34l-2.21 3.83H359.1zM393.86 0h11.44a17.09 17.09 0 0 1 3.87.38 7.93 7.93 0 0 1 2.58 1A4.12 4.12 0 0 1 413.19 3a4.43 4.43 0 0 1 .45 2 7.31 7.31 0 0 1-.45 2.44A12.81 12.81 0 0 1 411.9 10l-.9 1.49a18.62 18.62 0 0 1-2.47 3.3 9.25 9.25 0 0 1-2.95 2.07 14.23 14.23 0 0 1-4 1.07 46.58 46.58 0 0 1-5.77.3h-12.46zm3.66 14.4a12.1 12.1 0 0 0 4.75-.85 7.53 7.53 0 0 0 3.39-3.1l.44-.7a12.12 12.12 0 0 0 1.1-2.13 4.8 4.8 0 0 0 .33-1.62 1.74 1.74 0 0 0-1-1.71 6.51 6.51 0 0 0-2.81-.5h-6.22l-6.11 10.61zm15.73-3.66A6.94 6.94 0 0 1 414.62 9a6.2 6.2 0 0 1 1.75-1.11 9 9 0 0 1 2.28-.6 21.51 21.51 0 0 1 3-.18h7.67a11.2 11.2 0 0 0 1.43-.08 4.23 4.23 0 0 0 1-.23 2.32 2.32 0 0 0 .64-.39 2.62 2.62 0 0 0 .43-.55 2.65 2.65 0 0 0 .44-1.19.7.7 0 0 0-.59-.73 5.6 5.6 0 0 0-1.49-.16h-12.34L421.11 0h11.05a18.38 18.38 0 0 1 2.62.18 7.61 7.61 0 0 1 2.22.63A3.89 3.89 0 0 1 438.46 2a2.9 2.9 0 0 1 .54 1.8 5.57 5.57 0 0 1-.33 1.76 11.21 11.21 0 0 1-1.05 2.24l-6.06 10.43h-14a10.63 10.63 0 0 1-4.44-.77 2.55 2.55 0 0 1-1.58-2.46 6.54 6.54 0 0 1 1.09-3.14zm14.62 3.66l2.52-4.21a5.07 5.07 0 0 1-.57.29 4.77 4.77 0 0 1-.76.21c-.29.05-.64.09-1 .13s-.87 0-1.43 0h-5.54a4.46 4.46 0 0 0-1.75.26 2 2 0 0 0-.9.83l-.49.81a1.58 1.58 0 0 0-.34.88.61.61 0 0 0 .48.6 4.57 4.57 0 0 0 1.31.15zM260.45 80.38l44.93-.19 10.14-15.99-43.92.19-11.15 15.99z"/><path class="cls-1" d="M72.05 31.87c-28 1.09-39.43 4.92-51 17.07C15.38 54.85 9 64.4 4.43 73.85c-9.92 20.42-3.35 33.58 21.34 35.92 8.26.78 42.83 1.08 88.41.59 3.18-4.5 7.45-10.83 12.23-17.76l-57.82.25c-10.75 0-24.67-.23-29.37-.76-10.59-1.19-12.65-5.53-7.38-15.48a72.18 72.18 0 0 1 13.07-17.37c7.48-7.1 12-9.25 27.59-9.8 17.89-.63 59.6-.67 72.24-.37 2.86-4.25 11.61-17.17 11.89-17.58-22.56-.67-65.28-.37-84.58.38zm188.03-1.05L215.8 55.74l-20.75-24.31h-28.82l30.55 35.33L120 110.58l40.82-1 48.3-28 23.88 27.9 29.23.33L228.24 71l73.09-41.33zM375.18 110c-12 0-23.95-.31-32.74-.86-7.9-.5-11.43-1.12-14.52-2.57a15.59 15.59 0 0 1-8.74-9.89c-1.48-5.32 0-11.43 4.12-17.19 5.57-7.78 11.57-12 20.24-14.06a11.43 11.43 0 0 1-4.69-4.8c-3.27-6.68 1.34-17.91 14.7-25.17 5.72-3.11 12.52-4.18 19-4.88 7.67-.81 21-1.28 36.55-1.28 12.33 0 24.8.3 34.21.82a39.46 39.46 0 0 1 9.53 1.48 14.77 14.77 0 0 1 9.21 7.47c2.59 5.36.61 15.08-7.2 22.08a26.33 26.33 0 0 1-9.46 5.23 11.61 11.61 0 0 1 5.44 4.82 11.83 11.83 0 0 1 1.34 7.13c-1.05 10.49-7.48 19.38-18.12 25-5.55 3-16.35 5.06-30.41 5.91-7.55.55-17.64.76-28.46.76zm19-36.85c-10.65 0-20.58.21-25.29.54-9.9.69-17.34 5-20.88 9.89-4.4 6-3 9.95 5.79 10.89 4.81.52 13.46.83 23.16.83 7.2 0 14-.18 19.22-.49 13.7-.84 19.89-2 26.1-10.49 2.28-3.11 3-6.54 2.4-7.94-.79-1.75-2.57-2.44-6.77-2.71-5.12-.29-13.77-.48-23.72-.48zm16.53-30.57c-10.35 0-19.93.25-24.74.66-10.58.91-14.16 2.53-17.9 6.53s-2.92 8.4 3.75 9c3.12.3 10.65.47 18.68.47 8.24 0 17.2-.19 22.56-.47 11.41-.61 16.24-2.48 21.33-9.11 2.61-3.42 1.88-6.37-4-6.72-4.58-.17-11.74-.32-19.67-.32z"/></svg>