<svg height="82.54mm" viewBox="0 0 1035.78 233.97" width="365.4mm" xmlns="http://www.w3.org/2000/svg"><g fill="#fff"><path d="M147.38 0v.07l-.46-.07C99.35 0 55.48 10 32.23 32.58a51.7 51.7 0 0 0 5.87 6.62 88.52 88.52 0 0 0 18.42 13.24c11.94-15.9 41.95-32.57 90.63-32.66 48.73.09 78.75 16.79 90.66 32.71a88.74 88.74 0 0 0 18.52-13.29 51.79 51.79 0 0 0 5.81-6.54C238.92 10 195 0 147.38 0z"/><path d="M270.27 43.86c-.23-.91-.48-1.84-.76-2.77a.76.76 0 0 0-.06-.2c-1.85 2.43-8.27 10.79-25.5 20.63-32.89 18.8-70.95 17.86-92.32 62.27a77.93 77.93 0 0 1-3.81 7l-.74.45-.42-.16a75.7 75.7 0 0 1-4-7.25c-21.37-44.45-59.42-43.51-92.31-62.31-17.24-9.84-23.66-18.2-25.51-20.63a.65.65 0 0 1 0 .13c-2.63 10.42-8.26 45.28 28.44 62.09a198.59 198.59 0 0 0 23.29 7.43c22.54 5.41 38.28 15.58 49.1 26 7.51 8 14.54 18.6 21.22 33.1 0 0 .1-.33.3-.92.2.59.3.92.3.92 6.68-14.5 13.71-25.09 21.22-33.1 10.82-10.39 26.56-20.56 49.09-26a201 201 0 0 0 24-7.69c33.2-15.58 31.06-46.18 28.47-58.99z"/><path d="M282.37 62.12c-.08 1.09-.19 2.18-.32 3.29a57.14 57.14 0 0 1-24.84 41.29 101.38 101.38 0 0 1 .05 17.81c-2.51 40.38-15.62 60.07-35.47 72.82-1.39.89-2.83 1.73-4.3 2.56l-9.86 4.77a121.5 121.5 0 0 1-20.5 6.36 198.09 198.09 0 0 1-36.69 3.98h-3.68c-30.32 0-56-5.92-74.25-17.67-19.85-12.75-33-32.44-35.48-72.82a102.65 102.65 0 0 1 .06-17.89C19.65 94.49 13.91 78.13 12.38 65.41c-.15-1.2-.26-2.38-.34-3.55C3.16 82.32-.6 104.47.08 115.55c3.49 57.56 22.52 91.27 67.31 107.17 20.86 7.79 47.18 11.55 79.77 11.23 103.62-1 141.94-34.21 147.06-118.4.67-11.03-3.06-33.04-11.85-53.43zm395.96 108.3h89.37v-28.58h-50.16zm63.84-106.59H652.8V92.4h50.16z"/><path d="M1029.08 75.76c-5.78-7.14-19.25-11.93-35.84-11.93h-75.11v27.76h64.59c13 0 15.91 3.61 15.91 9.36v3H945c-16.06 0-32 4.67-35.78 23.11V107c0-29.22-16.42-43.1-49.07-43.1H758.29l-113.2 81.74V97.68c0-7.84-.86-14.71-6.7-21.92s-19.25-11.93-35.84-11.93h-75.11v27.76H592c13 0 16 3.61 16 9.41v3h-53.71c-16.65 0-33.21 5-36.13 25.23V99c0-17.66-10.79-35.15-41.83-35.15H340.24v106.57h37.84V94H411v76.42h36.84v-76.7h17.94c10.07 0 14.47 7.52 14.47 15.31v61.39h37.92V143.1c2.41 18.53 14.54 27.32 35.58 27.32H663l114.61-82v82h82.51c28.52 0 44.66-10.59 48.28-32.75.65 22.26 13 32.75 36 32.75h91.36V97.68c.02-7.84-.85-14.68-6.68-21.92zM607.93 144h-42.61c-7.09 0-11.8-2.44-11.8-8.9s6.29-8.18 13.18-8.18h41.23zm244.56-2.94H816V93.32h33.92c17.16 0 22.37 5.41 22.37 23.72-.04 23.56-12.15 24.02-19.8 24.02zM998.61 144H956c-7.09 0-11.8-2.44-11.8-8.9s6.29-8.18 13.18-8.18h41.22z"/></g></svg>