<svg xmlns="http://www.w3.org/2000/svg" width="120.219" height="110.241" viewBox="0 0 120.219 110.241"><style type="text/css">.st0{fill:#E0B397;} .st1{fill:#CBD7EB;} .st2{fill:#29338A;}</style><path class="st0" d="M19.051 40.897c-7.874 19.545-4.133 42.769 11.417 58.883l-10.848 10.461c-19.458-20.16-24.382-49.066-15.043-73.68l14.474 4.336zm82.117 0c7.874 19.545 4.133 42.769-11.417 58.883l10.848 10.461c19.459-20.16 24.383-49.066 15.044-73.68l-14.475 4.336z"/><path class="st1" d="M118.544 37.782c-7.649-25.53-32.828-40.998-58.434-37.215-25.607-3.783-50.785 11.685-58.435 37.215l58.435 17.514 58.434-17.514z"/><path class="st2" d="M96.064 30.139v3.512l-.388 11.064 7.393-2.234zm-71.908-.208v14.659l-7.814-2.375z"/></svg>