<?xml version="1.0" encoding="utf-8"?>
<!-- Generator: Adobe Illustrator 20.0.0, SVG Export Plug-In . SVG Version: 6.00 Build 0)  -->
<svg version="1.1" id="Layer_2" xmlns="http://www.w3.org/2000/svg" xmlns:xlink="http://www.w3.org/1999/xlink" x="0px" y="0px"
	 viewBox="0 0 300 250" style="enable-background:new 0 0 300 250;" xml:space="preserve">
<style type="text/css">
	.st0{fill:#A46C35;}
	.st1{fill:#8E572A;}
	.st2{fill:#414042;}
	.st3{fill:#F58220;}
	.st4{fill:#BED0E4;}
	.st5{fill:none;stroke:#A46C35;stroke-width:4.5723;stroke-linecap:round;stroke-miterlimit:10;}
	.st6{fill:#233E99;}
	.st7{fill:#2B286A;}
</style>
<circle class="st0" cx="149.2" cy="73.7" r="41.5"/>
<path class="st1" d="M134.1,112.4v4.8c4.7,1.8,9.8,2.9,15.2,2.9c5.3,0,10.4-1,15.1-2.8v-4.8c-4.7,1.8-9.8,2.9-15.1,2.9
	C143.9,115.2,138.8,114.2,134.1,112.4z"/>
<path class="st2" d="M149.2,30.4c-23.9,0-43.3,19.4-43.3,43.3c0,6.2,1.3,12,3.6,17.3c3.8-5.8,6.7-12.2,8.4-19.2
	c5.2,1.5,10.7,2.3,16.4,2.3c17.8,0,33.8-7.8,45-20.3c-0.2,1.8-0.2,3.6-0.2,5.5c0,12.2,3.3,23.5,9.1,33.2c2.8-5.7,4.3-12.1,4.3-18.8
	C192.5,49.8,173.1,30.4,149.2,30.4z"/>
<g>
	<circle class="st2" cx="161.8" cy="79.4" r="2.3"/>
	<circle class="st2" cx="136.6" cy="79.4" r="2.3"/>
</g>
<path class="st2" d="M149.2,104.7c-2.1,0-4.1-0.8-5.6-2.3l-2.7-2.7h16.6l-2.7,2.7C153.3,103.9,151.3,104.7,149.2,104.7z"/>
<path class="st3" d="M199.6,186l0.8,2.4h9.4c0-0.8-0.1-1.6-0.1-2.4H199.6z"/>
<path class="st4" d="M132.7,128.1c-26.5,7.2-45.9,31.5-45.9,60.2h15.5h4.1v53.9v32.9h85.8v-31.9v-54.8h8.3h11.2
	c0-28.7-19.4-52.9-45.8-60.2L132.7,128.1z"/>
<path class="st0" d="M164.3,129.3v-12.1c-4.7,1.8-9.8,2.8-15.1,2.8c-5.4,0-10.5-1-15.2-2.9v12.1C135,129.1,163.3,129.1,164.3,129.3z
	"/>
<rect x="89.5" y="188.3" class="st0" width="16.9" height="75.7"/>
<g>
	<path class="st5" d="M88.4,280.8l-0.2-13.7c0-4.1,3.4-7.4,7.5-7.4c4.1,0,7.4,3.4,7.4,7.5L104,281"/>
	<path class="st5" d="M95.7,259.7c4.1,0,12.2-0.1,12.2,7.5l0.2,8"/>
	<line class="st5" x1="98.1" y1="260.4" x2="98.6" y2="281"/>
	<line class="st5" x1="93.4" y1="260.4" x2="93.8" y2="281"/>
</g>
<g>
	<line class="st5" x1="103.3" y1="277.5" x2="103.3" y2="281"/>
	<line class="st5" x1="108.5" y1="277.5" x2="108.5" y2="281"/>
	<line class="st5" x1="98.5" y1="277.5" x2="98.5" y2="281.1"/>
	<line class="st5" x1="93.1" y1="277.5" x2="93.1" y2="281"/>
</g>
<rect x="192.2" y="188.2" class="st0" width="16.9" height="75.7"/>
<path class="st5" d="M203.1,259.7c-4.1,0-12.2-0.1-12.2,7.5l-0.2,8"/>
<line class="st5" x1="200.7" y1="260.4" x2="200.2" y2="281"/>
<line class="st5" x1="205.4" y1="260.4" x2="205" y2="281"/>
<g>
	<line class="st5" x1="195.4" y1="277.5" x2="195.4" y2="281"/>
	<line class="st5" x1="190.2" y1="277.5" x2="190.2" y2="281"/>
	<line class="st5" x1="200.2" y1="277.5" x2="200.2" y2="281.1"/>
	<line class="st5" x1="205.6" y1="277.5" x2="205.6" y2="281"/>
</g>
<path class="st6" d="M198.7,67.7C198.7,67.7,198.7,67.7,198.7,67.7l-99-1.4c-2,0-3.6-1.7-3.6-3.7c0-2,1.6-3.5,3.7-3.6l98.9,1.4
	c2,0,3.6,1.7,3.6,3.7C202.3,66.1,200.7,67.7,198.7,67.7z"/>
<path class="st6" d="M170.7,22.6l-0.4,28.6c0,2.1-1.8,3.8-3.9,3.8c-2.1,0-3.8-1.8-3.8-3.9l0.5-31.9c-4.2-1.4-8.6-2.2-13.2-2.3
	c-4.6-0.1-9.1,0.6-13.3,1.9l-0.5,31.9c0,2.1-1.8,3.8-3.9,3.8c-2.1,0-3.8-1.8-3.8-3.9L129,22c-0.1,0-0.2,0.1-0.3,0.1
	c-14.2,7.6-24,22.8-24.3,40.4l14.7,0.2l58.6,0.8l16.3,0.2C194.3,46.1,184.8,30.6,170.7,22.6z"/>
<path class="st7" d="M166.4,55c2.1,0,3.8-1.7,3.9-3.8l0.4-28.6c-0.4-0.2-0.8-0.5-1.2-0.7c-2-1.1-4.1-1.9-6.3-2.7l-0.5,31.9
	C162.6,53.3,164.3,55,166.4,55z"/>
<path class="st7" d="M132.3,54.5c2.1,0,3.8-1.7,3.9-3.8l0.5-31.9c-2.7,0.8-5.2,1.9-7.7,3.1l-0.4,28.6
	C128.5,52.8,130.2,54.5,132.3,54.5z"/>
<path class="st6" d="M167.7,128.2l-37-0.1c-9.1,2.8-17.3,7.7-24.1,14.1l-0.1,0.1c0,0-0.1,0.1-0.1,0.1v132.7h85.7V243v-55v-2.4v-17.3
	v-4.2v-21.7C185.2,136,176.9,131,167.7,128.2z"/>
<polygon class="st4" points="167.7,128.2 130.7,128.1 149.2,184.9 "/>
<rect x="106.3" y="214" class="st7" width="85.8" height="31.1"/>
<g>
	<path class="st7" d="M180.2,236.8V133.6c-2.6-1.5-5.3-2.8-8.1-3.9v107.1H180.2z"/>
	<path class="st7" d="M126.3,236.8V129.6c-2.8,1.1-5.5,2.4-8.1,3.9v103.3H126.3z"/>
</g>
<path class="st5" d="M210.4,280.8l0.2-13.7c0-4.1-3.4-7.4-7.5-7.4c-4.1,0-7.4,3.4-7.4,7.5l-0.9,13.8"/>
</svg>
