<?xml version="1.0" encoding="utf-8"?>
<!-- Generator: Adobe Illustrator 20.0.0, SVG Export Plug-In . SVG Version: 6.00 Build 0)  -->
<svg version="1.1" id="Layer_2" xmlns="http://www.w3.org/2000/svg" xmlns:xlink="http://www.w3.org/1999/xlink" x="0px" y="0px"
	 viewBox="0 0 300 250" style="enable-background:new 0 0 300 250;" xml:space="preserve">
<style type="text/css">
	.st0{fill:#233E99;}
	.st1{fill:#986432;}
	.st2{fill:#7F512A;}
	.st3{fill:#F8DAC8;}
	.st4{fill:#E8E8E8;}
	.st5{fill:none;}
	.st6{fill:none;stroke:#243670;stroke-width:1.5;stroke-linecap:round;stroke-miterlimit:10;}
	.st7{fill:#CEEBFB;}
	.st8{fill:#FDB913;}
	.st9{fill:#233570;}
	.st10{fill:none;stroke:#D65827;stroke-width:1.0557;stroke-miterlimit:10;}
	.st11{fill:#C95123;}
	.st12{fill:none;stroke:#F27224;stroke-width:1.3008;stroke-miterlimit:10;}
	.st13{fill:none;stroke:#D65827;stroke-width:1.3008;stroke-miterlimit:10;}
	.st14{fill:none;stroke:#F8DAC8;stroke-width:4.5723;stroke-linecap:round;stroke-miterlimit:10;}
</style>
<path class="st0" d="M209.8,184.9c0-33.6-27.2-60.8-60.8-60.8c-33.6,0-60.8,27.2-60.8,60.8"/>
<g>
	<path class="st1" d="M206.5,88.4c-0.8,33.2-27.4,33.8-59.4,32.8c-32-1-57.4-3.2-56.6-36.5C91.4,51.5,118,25.4,150,26.4
		C182,27.4,207.3,55.1,206.5,88.4z"/>
</g>
<path class="st2" d="M195.1,77.4c0-23.9-20.7-43.3-46.1-43.3c-25.5,0-46.1,19.4-46.1,43.3c0,23.9,20.7,43.3,46.1,43.3
	C171.5,120.7,195.1,101.3,195.1,77.4z"/>
<path class="st0" d="M148.6,122.8c-22.2,0-40.1,18-40.1,40.1v75.7l-12.7,46.1h105.6l-12.7-46.1v-75.7
	C188.7,140.8,170.8,122.8,148.6,122.8z"/>
<polygon class="st3" points="163.7,89.9 134.3,89.9 134.3,126.2 149.1,141.9 163.7,126.2 "/>
<g>
	<path class="st4" d="M134.3,76.6v37.7c4.6,1.8,9.6,2.8,14.8,2.8c5.2,0,10.1-1,14.7-2.8V76.6H134.3z"/>
</g>
<circle class="st3" cx="149" cy="73.4" r="40.5"/>
<g>
	<g>
		<path class="st1" d="M108.9,56.2c-2.1,3.2-4.1,6.7-6,10.4c23-1.7,43-16.5,47.7-39.9c-4.8,0.2-10.8,1.4-15.4,3.6
			C125.7,34.9,116.8,43.7,108.9,56.2z"/>
	</g>
	<path class="st1" d="M190.3,56c-7.8-12.5-18-20.8-27.4-25.5c-4.5-2.3-10.5-3.6-15.3-3.8c4.4,23.5,24.2,38.5,47.2,40.5
		C192.8,63.4,192.3,59.2,190.3,56z"/>
</g>
<circle class="st5" cx="149" cy="73.4" r="41.3"/>
<g>
	<circle class="st0" cx="160.9" cy="82" r="2.2"/>
	<circle class="st0" cx="136.4" cy="82" r="2.2"/>
</g>
<path class="st6" d="M146.2,83.1c0,0.8-0.7,1.5-1.5,1.5H128c-0.8,0-1.5-0.7-1.5-1.5v-6.5c0-0.8,0.7-1.5,1.5-1.5h16.7
	c0.8,0,1.5,0.7,1.5,1.5V83.1z"/>
<path class="st6" d="M170.7,83.1c0,0.8-0.7,1.5-1.5,1.5h-16.7c-0.8,0-1.5-0.7-1.5-1.5v-6.5c0-0.8,0.7-1.5,1.5-1.5h16.7
	c0.8,0,1.5,0.7,1.5,1.5V83.1z"/>
<g>
	<polygon class="st7" points="87.3,172.7 129.2,166.2 136.5,214.8 94.6,221.3 	"/>
	<path class="st8" d="M126.1,170.4l6.2,41.4l-34.7,5.4l-6.2-41.4L126.1,170.4 M130.4,162.3c-0.1,0-0.2,0-0.3,0l-44.8,6.9
		c-1.2,0.2-2,1.3-1.8,2.5l7.8,51.5c0.2,1.1,1.1,1.9,2.2,1.9c0.1,0,0.2,0,0.3,0l44.8-6.9c1.2-0.2,2-1.3,1.8-2.5l-7.8-51.5
		C132.4,163.1,131.5,162.3,130.4,162.3L130.4,162.3z"/>
</g>
<polygon class="st9" points="186.8,154.3 186.8,158.4 186.8,184.9 194.9,184.9 "/>
<rect x="186.8" y="184.9" class="st3" width="17" height="57.9"/>
<g>
	<rect x="186.8" y="220.3" class="st8" width="49.7" height="7.7"/>
	<g>
		<line class="st10" x1="191.4" y1="222.4" x2="191.4" y2="226"/>
		<line class="st10" x1="232" y1="222.4" x2="232" y2="226"/>
	</g>
</g>
<g>
	<rect x="186.8" y="227.7" class="st11" width="42.4" height="10.6"/>
	<g>
		<line class="st12" x1="191.8" y1="230.6" x2="191.8" y2="235.6"/>
		<line class="st12" x1="224.2" y1="230.6" x2="224.2" y2="235.6"/>
	</g>
</g>
<g>
	<rect x="186.8" y="238" class="st8" width="54.7" height="10.6"/>
	<path class="st3" d="M212.4,251.3c0,2.1-2.4,3.8-5.3,3.8h-16.5c-2.9,0-3.8-1.7-3.8-3.8v-0.1c0-2.1,0.9-3.8,3.8-3.8h16.5
		C210.1,247.5,212.4,249.1,212.4,251.3L212.4,251.3z"/>
	<g>
		<line class="st13" x1="191.8" y1="240.9" x2="191.8" y2="245.9"/>
		<line class="st13" x1="236.5" y1="240.9" x2="236.5" y2="245.9"/>
	</g>
</g>
<path class="st0" d="M148.5,103.9c-2,0-3.9-0.8-5.3-2.2l-2.6-2.6h15.8l-2.6,2.6C152.4,103.1,150.6,103.9,148.5,103.9z"/>
<g>
	<path class="st14" d="M101.6,208.6l-12.5,2.3c-3.7,0.7-7.2-1.8-7.9-5.5c-0.7-3.7,1.8-7.2,5.5-7.9l12.3-2.9"/>
	<path class="st14" d="M81.2,205.4c-0.7-3.7-2.1-10.9,4.7-12.2l7.2-1.6"/>
	<line class="st14" x1="81.4" y1="203.2" x2="100.7" y2="198.8"/>
	<line class="st14" x1="82.1" y1="207.7" x2="101.6" y2="203.7"/>
</g>
</svg>
