<?xml version="1.0" encoding="utf-8"?>
<!-- Generator: Adobe Illustrator 20.0.0, SVG Export Plug-In . SVG Version: 6.00 Build 0)  -->
<svg version="1.1" id="Layer_2" xmlns="http://www.w3.org/2000/svg" xmlns:xlink="http://www.w3.org/1999/xlink" x="0px" y="0px"
	 viewBox="0 0 300 250" style="enable-background:new 0 0 300 250;" xml:space="preserve">
<style type="text/css">
	.st0{fill:#233E99;}
	.st1{fill:#233570;}
	.st2{fill:#D8AA90;}
	.st3{fill:#BB947E;}
	.st4{fill:none;stroke:#243670;stroke-width:1.5;stroke-linecap:round;stroke-miterlimit:10;}
	.st5{fill:#EC9123;}
	.st6{fill:#D4DAEF;}
	.st7{fill:none;}
	.st8{fill:#222223;}
	.st9{fill:#414042;}
</style>
<g>
	<path class="st0" d="M222.4,192.9c-1.6-33.4-23.9-58.8-58.1-65.2l-15.8,7.8l-15.9-7.8c-35.4,6.7-53.8,33.7-53.8,68.5l0,2.2
		c-0.4,21.3,2.3,42.3,21.8,56.6v30.9h95.6v-30.9C216.7,240.1,224,215.4,222.4,192.9z"/>
	<polygon class="st1" points="196.2,176 196.2,255.2 203.8,223.8 	"/>
</g>
<g>
	<g>
		<path class="st2" d="M132.7,119.6v0.6v10l15.9,7.5l15.6-7.5v-10v-0.6c-4.8,2.1-10.2,3.3-15.8,3.3
			C142.8,122.9,137.5,121.7,132.7,119.6z"/>
	</g>
	<path class="st3" d="M148.4,118.4c-5.6,0-10.9-1-15.8-2.7v3.9c4.8,2.1,10.2,3.3,15.8,3.3c5.6,0,10.9-1.2,15.8-3.3v-3.9
		C159.3,117.4,154,118.4,148.4,118.4z"/>
</g>
<circle class="st2" cx="148.4" cy="79.8" r="39.3"/>
<g>
	<g>
		<circle class="st0" cx="160.3" cy="85.2" r="2.2"/>
		<circle class="st0" cx="136.5" cy="85.2" r="2.2"/>
	</g>
	<path class="st0" d="M148.4,109.1c-2,0-3.9-0.8-5.3-2.2l-2.5-2.5h15.7l-2.5,2.5C152.3,108.4,150.4,109.1,148.4,109.1z"/>
</g>
<path class="st0" d="M150.7,35.8c-0.5,0-1,0-1.5,0c-0.2,0-0.4,0-0.7,0c-0.9,0-1.7,0-2.5,0.1c-21.5,1.3-38.6,19.1-38.6,40.9
	c0,3.2,1.2,10.1,2.9,12.7c-0.1-6.2,0.5-13.4,2.8-18.2c13.3-0.4,45-10.6,55.7-19.6c10.9,5.7,17.6,20.5,17.7,37.8
	c0.7-1.4,2.1-5.4,2.8-10.7c0-0.7,0.1-1.4,0.1-2.1C189.4,54.8,172.3,37,150.7,35.8z"/>
<g>
	<path class="st4" d="M152.4,87.1c0.5,2.3,2.4,4.8,5.1,4.8h8.8c2.9,0,4.5-2.8,4.5-5.1c0-1.1,0-3.4,0-4.5c0-2.1-2.1-3.7-5.4-3.8
		c-1.2,0-2.9-0.1-4.7-0.1c-2.2,0-4.5,0-5.9,0.4c-2.3,0.6-3.5,3-3,5.6L152.4,87.1z"/>
	<path class="st4" d="M144.4,87.1c-0.5,2.3-2.4,4.8-5.1,4.8h-8.8c-2.9,0-4.5-2.8-4.5-5.1c0-1.1,0-3.4,0-4.5c0-2.1,2.1-3.7,5.4-3.8
		c1.2,0,2.9-0.1,4.7-0.1c2.2,0,4.5,0,5.9,0.4c2.3,0.6,3.5,3,3,5.6L144.4,87.1z"/>
	<line class="st4" x1="145" y1="83" x2="151.9" y2="83"/>
</g>
<circle class="st1" cx="148.6" cy="224.4" r="3.6"/>
<circle class="st1" cx="148.6" cy="247.1" r="3.6"/>
<polygon class="st1" points="148.6,259.5 146.3,286.1 150.8,286.1 "/>
<g>
	<path class="st1" d="M177.1,147.3l5.1-4l-2.6-11.1l-7.1-2.6c0,0-0.7,3-1.7,7.7c-2.6,11.7-7.6,33.7-10.4,42.7
		c-0.9,3-2.7,7.9-4.6,13.1c-2.5,6.8-5.4,14.2-7.3,19.1c-1.9-4.9-4.7-12.3-7.3-19c-2-5.3-3.7-10.2-4.6-13.2
		c-3.2-10.5-9.5-38.5-11.4-47.5c-0.4-1.8-0.6-2.9-0.6-2.9l-7.1,2.6l-2.6,11.1l5.1,4l-6.7,5.7c0,0,8.9,22,19.5,39.7
		c4.9,8.1,15.5,22.1,15.8,22.4c0.2-0.3,10.9-14.3,15.8-22.4c10.6-17.7,19.5-39.7,19.5-39.7L177.1,147.3z"/>
	<path class="st5" d="M155.8,193.2l-3.6-47.4l3.1-5.8l-6.8-4.5h0l-6.8,4.5l3.1,5.8l-3.6,47.5c2.5,6.8,5.4,14.2,7.3,19
		C150.4,207.4,153.3,200,155.8,193.2z"/>
	<g>
		<path class="st6" d="M164.3,127.7l-15.8,7.8l0,0h0.1l-0.1,0l-0.1,0h0l6.8,4.5l-3.1,5.8l3.6,47.4c2-5.3,3.7-10.1,4.6-13.1
			c2.8-9,7.8-31,10.4-42.7l1.5-7.7C169.9,128.8,166.5,128.2,164.3,127.7z"/>
		<path class="st6" d="M132.6,127.7c-2.2,0.4-5.6,1.1-8,1.9l0.5,2.9c2,9,8.2,37.1,11.4,47.5c0.9,3,2.7,7.9,4.6,13.2l3.6-47.5
			l-3.1-5.8l6.8-4.5l0,0l-0.1,0L132.6,127.7z"/>
	</g>
</g>
<path class="st7" d="M100.7,113.9"/>
<rect x="78.8" y="196.3" class="st0" width="21.8" height="62.5"/>
<polygon class="st1" points="100.7,176 100.7,258.8 92.7,258.8 "/>
<g>
	<ellipse class="st8" cx="148.6" cy="48.3" rx="21.9" ry="7.7"/>
	<rect x="126.7" y="22.6" class="st8" width="43.8" height="25.6"/>
	<polygon class="st8" points="194.2,61.8 192.6,60.4 191,61.8 191,31.6 194.2,31.6 	"/>
	<polygon class="st9" points="148.6,11.8 97.2,31.6 148.6,51.5 200,31.6 	"/>
</g>
</svg>
