<svg xmlns="http://www.w3.org/2000/svg" xmlns:xlink="http://www.w3.org/1999/xlink" width="72.768" height="166.133" viewBox="0 0 72.768 166.133"><style type="text/css">.st0{fill:#E0B397;} .st1{fill:#C59E86;} .st2{fill:#29338A;} .st3{fill:#CBD7EB;} .st4{fill:#3C3C3B;}</style><path class="st0" d="M23.457 50.871h25.663v45.285h-25.663z"/><path class="st1" d="M23.454 39.305v32.815c3.989 1.564 8.325 2.434 12.872 2.434 4.514 0 8.825-.857 12.796-2.408v-32.84h-25.668z"/><ellipse class="st0" cx="36.325" cy="35.434" rx="35.045" ry="35.048"/><defs><ellipse id="SVGID_1_" cx="36.324" cy="35.25" rx="35.247" ry="35.249"/></defs><clipPath id="SVGID_2_"><use xlink:href="#SVGID_1_" overflow="visible"/></clipPath><circle class="st2" cx="47.05" cy="40.115" r="1.959"/><circle class="st2" cx="25.719" cy="40.115" r="1.959"/><path class="st3" d="M48.907 81.734c-1.081 5.994-6.312 10.543-12.616 10.543-6.28 0-11.499-4.514-12.608-10.473-13.83 5.154-23.683 18.475-23.683 34.102v50.227h72.768v-50.227c0-15.695-9.936-29.067-23.861-34.172z"/><path class="st4" d="M36.323 0c-19.456 0-35.228 15.772-35.228 35.227 0 5.018 1.056 9.787 2.945 14.106 3.069-4.703 5.412-9.953 6.847-15.582 4.246 1.211 8.713 1.87 13.333 1.87 14.471 0 27.498-6.355 36.62-16.495-.123 1.472-.201 2.956-.201 4.46 0 9.894 2.714 19.133 7.405 26.979 2.247-4.635 3.51-9.84 3.51-15.337-.001-19.456-15.776-35.228-35.231-35.228zm.064 61.367c-1.757 0-3.415-.686-4.661-1.93l-2.241-2.24h13.798l-2.236 2.238c-1.244 1.246-2.899 1.932-4.66 1.932z"/></svg>