<?xml version="1.0" encoding="utf-8"?>
<!-- Generator: Adobe Illustrator 16.0.0, SVG Export Plug-In . SVG Version: 6.00 Build 0)  -->
<!DOCTYPE svg PUBLIC "-//W3C//DTD SVG 1.1//EN" "http://www.w3.org/Graphics/SVG/1.1/DTD/svg11.dtd">
<svg version="1.1" id="Layer_1" xmlns="http://www.w3.org/2000/svg" xmlns:xlink="http://www.w3.org/1999/xlink" x="0px" y="0px"
	 width="300px" height="250px" viewBox="0 0 300 250" enable-background="new 0 0 300 250" xml:space="preserve">
<path fill="#FFFFFF" d="M28.96,102.938v-1.328h0.608c0.096,0,0.184-0.045,0.264-0.136s0.12-0.179,0.12-0.264v-4.832
	c0-0.097-0.04-0.192-0.12-0.288c-0.08-0.097-0.168-0.145-0.264-0.145h-0.672v-1.408h3.024c0.256,0,0.384,0.299,0.384,0.896v5.776
	c0,0.096,0.042,0.187,0.128,0.271c0.085,0.086,0.176,0.128,0.272,0.128h0.608v1.328H28.96z M32,93.522
	c-0.246,0.24-0.544,0.36-0.896,0.36s-0.651-0.12-0.896-0.36c-0.246-0.24-0.368-0.53-0.368-0.872c0-0.341,0.123-0.635,0.368-0.88
	c0.245-0.245,0.544-0.368,0.896-0.368s0.65,0.123,0.896,0.368c0.245,0.245,0.368,0.539,0.368,0.88
	C32.368,92.992,32.245,93.282,32,93.522z"/>
<path fill="#FFFFFF" d="M33.84,102.938v-1.328h0.56c0.096,0,0.187-0.045,0.272-0.136c0.085-0.091,0.128-0.179,0.128-0.264v-4.832
	c0-0.097-0.043-0.192-0.128-0.288c-0.085-0.097-0.176-0.145-0.272-0.145h-0.624v-1.408h2.864c0.149,0,0.261,0.078,0.336,0.232
	s0.123,0.44,0.144,0.856c0.864-0.811,1.904-1.217,3.12-1.217c1.451,0,2.176,0.699,2.176,2.097v4.704
	c0,0.096,0.042,0.187,0.128,0.271c0.085,0.086,0.176,0.128,0.272,0.128h0.448v1.328H39.12v-1.328h0.96v-4.304
	c0-0.405-0.083-0.686-0.248-0.84c-0.166-0.155-0.451-0.232-0.856-0.232c-0.565,0-1.179,0.106-1.84,0.32v5.056h0.976v1.328H33.84z"/>
<path fill="#FFFFFF" d="M42.896,105.45v-1.168h0.544c0.437,0,0.747-0.088,0.928-0.264c0.182-0.176,0.272-0.467,0.272-0.872v-6.768
	c0-0.097-0.04-0.192-0.12-0.288c-0.08-0.097-0.168-0.145-0.264-0.145h-0.672v-1.408h3.024c0.256,0,0.384,0.299,0.384,0.896v7.855
	c0,0.843-0.229,1.443-0.688,1.801c-0.458,0.356-1.141,0.536-2.048,0.536C43.733,105.627,43.28,105.567,42.896,105.45z
	 M46.688,93.522c-0.246,0.24-0.544,0.36-0.896,0.36s-0.651-0.12-0.896-0.36c-0.246-0.24-0.368-0.53-0.368-0.872
	c0-0.341,0.123-0.635,0.368-0.88c0.245-0.245,0.544-0.368,0.896-0.368s0.65,0.123,0.896,0.368c0.245,0.245,0.368,0.539,0.368,0.88
	C47.056,92.992,46.933,93.282,46.688,93.522z"/>
<path fill="#FFFFFF" d="M51.263,103.051c-1.504,0-2.256-0.693-2.256-2.08v-4.624c0-0.097-0.045-0.187-0.136-0.272
	c-0.091-0.085-0.179-0.128-0.264-0.128h-0.544v-1.408h3.28v5.696c0,0.438,0.099,0.741,0.296,0.912s0.494,0.256,0.888,0.256
	c0.512,0,1.099-0.133,1.76-0.399v-5.057h-1.104v-1.408h3.44v6.641c0,0.096,0.042,0.191,0.128,0.288
	c0.085,0.096,0.176,0.144,0.272,0.144h0.544v1.328h-2.784c-0.139,0-0.245-0.072-0.32-0.216c-0.075-0.145-0.128-0.419-0.16-0.824
	C53.482,102.666,52.469,103.051,51.263,103.051z"/>
<path fill="#FFFFFF" d="M58.111,102.938v-1.328h0.56c0.096,0,0.187-0.045,0.272-0.136c0.085-0.091,0.128-0.179,0.128-0.264v-4.832
	c0-0.097-0.043-0.192-0.128-0.288c-0.085-0.097-0.176-0.145-0.272-0.145h-0.624v-1.408h2.864c0.299,0,0.458,0.406,0.48,1.217
	c0.331-0.405,0.675-0.723,1.032-0.952s0.787-0.345,1.288-0.345c0.16,0,0.331,0.027,0.512,0.08v1.729h-0.4
	c-0.992,0-1.797,0.171-2.416,0.512v4.832h1.168v1.328H58.111z"/>
<path fill="#FFFFFF" d="M67.951,105.53h-1.904v-1.231c0.96-0.288,1.717-0.779,2.272-1.473l-2.768-6.432
	c-0.128-0.299-0.293-0.448-0.496-0.448h-0.304v-1.408h4.064v1.408h-1.104l1.808,4.336l1.344-3.279
	c0.149-0.31,0.203-0.562,0.16-0.761c-0.043-0.197-0.224-0.296-0.544-0.296h-0.256v-1.408h3.696v1.408h-0.352
	c-0.246,0-0.438,0.166-0.576,0.496l-2.752,6.192C69.621,103.979,68.858,104.943,67.951,105.53z"/>
<path fill="#FFFFFF" d="M81.887,103.051c-1.43,0-2.512-0.374-3.248-1.12c-0.736-0.747-1.104-1.803-1.104-3.168
	c0-1.344,0.402-2.405,1.208-3.185c0.805-0.778,1.891-1.168,3.256-1.168c1.216,0,2.16,0.145,2.832,0.433v1.92h-1.408
	c-0.15-0.299-0.333-0.518-0.552-0.656s-0.525-0.208-0.92-0.208c-1.355,0-2.032,0.96-2.032,2.88c0,0.992,0.163,1.71,0.488,2.152
	c0.325,0.442,0.834,0.664,1.528,0.664c0.32,0,0.605-0.051,0.856-0.152s0.435-0.205,0.552-0.312c0.117-0.106,0.245-0.251,0.384-0.433
	h1.136v1.648C84.031,102.816,83.039,103.051,81.887,103.051z"/>
<path fill="#FFFFFF" d="M85.599,102.938v-1.328h0.624c0.096,0,0.187-0.045,0.272-0.136s0.128-0.179,0.128-0.264v-7.664
	c0-0.097-0.042-0.192-0.128-0.288c-0.085-0.097-0.176-0.145-0.272-0.145h-0.672v-1.376h3.008c0.267,0,0.4,0.182,0.4,0.544v8.929
	c0,0.096,0.045,0.187,0.136,0.271c0.09,0.086,0.178,0.128,0.264,0.128h0.656v1.328H85.599z"/>
<path fill="#FFFFFF" d="M93.295,103.034c-0.811,0-1.461-0.218-1.952-0.655c-0.491-0.438-0.736-1.062-0.736-1.872
	c0-0.854,0.299-1.493,0.896-1.92s1.403-0.641,2.416-0.641c0.608,0,1.179,0.064,1.712,0.192v-0.88c0-0.832-0.485-1.248-1.456-1.248
	c-0.725,0-1.371,0.25-1.936,0.752h-1.072v-1.712c0.949-0.427,2.106-0.641,3.472-0.641c1.12,0,1.955,0.203,2.504,0.608
	s0.824,1.077,0.824,2.016v4.177c0,0.096,0.043,0.187,0.128,0.271c0.085,0.086,0.176,0.128,0.272,0.128h0.448v1.12
	c-0.352,0.213-0.821,0.32-1.408,0.32c-0.907,0-1.467-0.353-1.68-1.057C95.162,102.688,94.351,103.034,93.295,103.034z
	 M94.159,101.658c0.554,0,1.045-0.197,1.472-0.592v-1.792c-0.363-0.063-0.773-0.096-1.232-0.096c-1.013,0-1.52,0.41-1.52,1.231
	C92.879,101.242,93.306,101.658,94.159,101.658z"/>
<path fill="#FFFFFF" d="M99.359,102.938v-1.328h0.608c0.096,0,0.184-0.045,0.264-0.136s0.12-0.179,0.12-0.264v-4.832
	c0-0.097-0.04-0.192-0.12-0.288c-0.08-0.097-0.168-0.145-0.264-0.145h-0.672v-1.408h3.024c0.256,0,0.384,0.299,0.384,0.896v5.776
	c0,0.096,0.042,0.187,0.128,0.271c0.085,0.086,0.176,0.128,0.272,0.128h0.608v1.328H99.359z M102.399,93.522
	c-0.246,0.24-0.544,0.36-0.896,0.36s-0.651-0.12-0.896-0.36c-0.246-0.24-0.368-0.53-0.368-0.872c0-0.341,0.123-0.635,0.368-0.88
	c0.245-0.245,0.544-0.368,0.896-0.368s0.65,0.123,0.896,0.368c0.245,0.245,0.368,0.539,0.368,0.88
	C102.767,92.992,102.644,93.282,102.399,93.522z"/>
<path fill="#FFFFFF" d="M104.239,102.938v-1.328h0.56c0.096,0,0.187-0.045,0.272-0.136c0.085-0.091,0.128-0.179,0.128-0.264v-4.832
	c0-0.097-0.043-0.192-0.128-0.288c-0.085-0.097-0.176-0.145-0.272-0.145h-0.624v-1.408h2.864c0.149,0,0.261,0.08,0.336,0.24
	s0.123,0.448,0.144,0.864c0.981-0.821,1.979-1.232,2.992-1.232c1.109,0,1.787,0.438,2.032,1.312
	c1.013-0.875,2.037-1.312,3.072-1.312c1.418,0,2.128,0.699,2.128,2.097v4.704c0,0.096,0.042,0.187,0.128,0.271
	c0.085,0.086,0.176,0.128,0.272,0.128h0.448v1.328h-4.08v-1.328h0.896v-4.368c0-0.395-0.072-0.661-0.216-0.8
	s-0.408-0.208-0.792-0.208c-0.566,0-1.152,0.102-1.76,0.304v5.072h0.912v1.328h-4.144v-1.328h0.896v-4.368
	c0-0.395-0.072-0.661-0.216-0.8s-0.408-0.208-0.792-0.208c-0.566,0-1.152,0.102-1.76,0.304v5.072h0.912v1.328H104.239z"/>
<path fill="#FFFFFF" d="M120.318,99.643c-0.096-0.64-0.085-1.174,0.032-1.601c0.117-0.426,0.442-0.917,0.976-1.472
	c0.01-0.011,0.064-0.063,0.16-0.16c0.096-0.096,0.163-0.165,0.2-0.208c0.037-0.042,0.101-0.117,0.192-0.224s0.16-0.194,0.208-0.264
	c0.048-0.069,0.106-0.16,0.176-0.272c0.069-0.112,0.123-0.216,0.16-0.312c0.038-0.097,0.069-0.203,0.096-0.32
	c0.026-0.117,0.04-0.234,0.04-0.353c0-0.373-0.096-0.669-0.288-0.888s-0.458-0.328-0.8-0.328c-0.619,0-1.11,0.326-1.472,0.977
	h-1.392v-2.064c1.035-0.362,2.016-0.544,2.944-0.544c1.109,0,1.981,0.254,2.616,0.76c0.635,0.507,0.952,1.229,0.952,2.168
	c0,0.587-0.128,1.064-0.384,1.433c-0.256,0.368-0.656,0.755-1.2,1.16c-0.427,0.319-0.715,0.538-0.864,0.655
	c-0.149,0.118-0.331,0.288-0.544,0.513c-0.213,0.224-0.35,0.438-0.408,0.64c-0.059,0.203-0.078,0.438-0.056,0.704H120.318z
	 M121.15,103.034c-0.374,0-0.686-0.122-0.936-0.368c-0.25-0.245-0.376-0.549-0.376-0.911c0-0.363,0.128-0.67,0.384-0.92
	c0.256-0.251,0.565-0.377,0.928-0.377s0.672,0.126,0.928,0.377c0.256,0.25,0.384,0.557,0.384,0.92c0,0.362-0.128,0.666-0.384,0.911
	C121.823,102.912,121.513,103.034,121.15,103.034z"/>
</svg>
