<?xml version="1.0" encoding="utf-8"?>
<!-- Generator: Adobe Illustrator 16.0.0, SVG Export Plug-In . SVG Version: 6.00 Build 0)  -->
<!DOCTYPE svg PUBLIC "-//W3C//DTD SVG 1.1//EN" "http://www.w3.org/Graphics/SVG/1.1/DTD/svg11.dtd">
<svg version="1.1" id="Layer_1" xmlns="http://www.w3.org/2000/svg" xmlns:xlink="http://www.w3.org/1999/xlink" x="0px" y="0px"
	 width="300px" height="250px" viewBox="0 0 300 250" enable-background="new 0 0 300 250" xml:space="preserve">
<path fill="#FFFFFF" d="M28.992,66.939v-1.328H29.6c0.117,0,0.224-0.056,0.32-0.168c0.096-0.112,0.144-0.221,0.144-0.328v-7.504
	c0-0.106-0.048-0.216-0.144-0.328c-0.096-0.112-0.203-0.168-0.32-0.168h-0.608v-1.376h3.584l4.448,7.184h0.048v-5.808h-1.248v-1.376
	h4.128v1.376H39.36c-0.107,0-0.208,0.056-0.304,0.168c-0.096,0.112-0.144,0.221-0.144,0.328v9.328H36.8l-4.864-7.808h-0.048v6.48
	h1.28v1.328H28.992z"/>
<path fill="#FFFFFF" d="M48.272,63.179h-5.616c0.096,1.621,0.821,2.432,2.176,2.432c0.48,0,0.842-0.072,1.088-0.216
	c0.245-0.144,0.496-0.376,0.752-0.696H48v1.536c-0.896,0.544-2.016,0.816-3.36,0.816c-1.43,0-2.515-0.376-3.256-1.128
	s-1.112-1.8-1.112-3.144c0-1.344,0.384-2.408,1.152-3.192s1.787-1.176,3.056-1.176c2.549,0,3.824,1.376,3.824,4.128
	c0,0.117-0.006,0.25-0.016,0.4C48.277,63.088,48.272,63.168,48.272,63.179z M44.48,59.803c-1.024,0-1.622,0.683-1.792,2.048h3.28
	c-0.042-0.726-0.181-1.248-0.416-1.568C45.317,59.963,44.96,59.803,44.48,59.803z"/>
<path fill="#FFFFFF" d="M56.96,63.179h-5.616c0.096,1.621,0.821,2.432,2.176,2.432c0.48,0,0.842-0.072,1.088-0.216
	c0.245-0.144,0.496-0.376,0.752-0.696h1.328v1.536c-0.896,0.544-2.016,0.816-3.36,0.816c-1.43,0-2.515-0.376-3.256-1.128
	s-1.112-1.8-1.112-3.144c0-1.344,0.384-2.408,1.152-3.192s1.787-1.176,3.056-1.176c2.549,0,3.824,1.376,3.824,4.128
	c0,0.117-0.006,0.25-0.016,0.4C56.965,63.088,56.96,63.168,56.96,63.179z M53.168,59.803c-1.024,0-1.622,0.683-1.792,2.048h3.28
	c-0.042-0.726-0.181-1.248-0.416-1.568C54.005,59.963,53.648,59.803,53.168,59.803z"/>
<path fill="#FFFFFF" d="M61.151,67.067c-0.448,0-0.87-0.072-1.264-0.216c-0.395-0.144-0.763-0.371-1.104-0.68
	c-0.342-0.309-0.614-0.749-0.816-1.32s-0.304-1.24-0.304-2.008c0-0.757,0.109-1.432,0.328-2.024
	c0.219-0.592,0.509-1.056,0.872-1.392c0.363-0.336,0.75-0.589,1.16-0.76c0.411-0.17,0.829-0.256,1.256-0.256
	c1.002,0,1.803,0.363,2.4,1.088v-2.384h-1.088v-1.376h3.024c0.267,0,0.4,0.182,0.4,0.544v8.896c0,0.096,0.042,0.192,0.128,0.288
	c0.085,0.096,0.176,0.144,0.272,0.144h0.576v1.328h-2.848c-0.235,0-0.379-0.314-0.432-0.944
	C63.093,66.709,62.239,67.067,61.151,67.067z M61.936,65.659c0.64,0,1.221-0.224,1.744-0.672v-4.608
	c-0.534-0.245-1.051-0.368-1.552-0.368c-0.619,0-1.123,0.214-1.512,0.64c-0.389,0.427-0.584,1.136-0.584,2.128
	C60.031,64.699,60.666,65.659,61.936,65.659z"/>
<path fill="#FFFFFF" d="M75.759,66.939v-1.328h0.96v-4.304c0-0.405-0.083-0.686-0.248-0.84c-0.166-0.154-0.451-0.232-0.856-0.232
	c-0.565,0-1.179,0.107-1.84,0.32v5.056h0.976v1.328h-4.272v-1.328h0.56c0.096,0,0.187-0.045,0.272-0.136
	c0.085-0.091,0.128-0.179,0.128-0.264v-7.664c0-0.096-0.043-0.192-0.128-0.288c-0.085-0.096-0.176-0.144-0.272-0.144h-0.608v-1.376
	h2.944c0.267,0,0.4,0.182,0.4,0.544v3.328c0.854-0.8,1.888-1.2,3.104-1.2c1.451,0,2.176,0.699,2.176,2.096v4.704
	c0,0.096,0.042,0.187,0.128,0.272c0.085,0.085,0.176,0.128,0.272,0.128h0.448v1.328H75.759z"/>
<path fill="#FFFFFF" d="M88.432,63.179h-5.616c0.096,1.621,0.821,2.432,2.176,2.432c0.48,0,0.842-0.072,1.088-0.216
	c0.245-0.144,0.496-0.376,0.752-0.696h1.328v1.536c-0.896,0.544-2.016,0.816-3.36,0.816c-1.43,0-2.515-0.376-3.256-1.128
	s-1.112-1.8-1.112-3.144c0-1.344,0.384-2.408,1.152-3.192s1.787-1.176,3.056-1.176c2.549,0,3.824,1.376,3.824,4.128
	c0,0.117-0.006,0.25-0.016,0.4C88.437,63.088,88.432,63.168,88.432,63.179z M84.64,59.803c-1.024,0-1.622,0.683-1.792,2.048h3.28
	c-0.042-0.726-0.181-1.248-0.416-1.568C85.477,59.963,85.12,59.803,84.64,59.803z"/>
<path fill="#FFFFFF" d="M89.056,66.939v-1.328h0.624c0.096,0,0.187-0.045,0.272-0.136s0.128-0.179,0.128-0.264v-7.664
	c0-0.096-0.042-0.192-0.128-0.288c-0.085-0.096-0.176-0.144-0.272-0.144h-0.672v-1.376h3.008c0.267,0,0.4,0.182,0.4,0.544v8.928
	c0,0.096,0.045,0.187,0.136,0.272c0.09,0.085,0.178,0.128,0.264,0.128h0.656v1.328H89.056z"/>
<path fill="#FFFFFF" d="M94.015,69.531v-1.248h0.56c0.096,0,0.187-0.043,0.272-0.128c0.085-0.085,0.128-0.176,0.128-0.272v-7.504
	c0-0.096-0.043-0.192-0.128-0.288c-0.085-0.096-0.176-0.144-0.272-0.144h-0.624v-1.408h2.864c0.267,0,0.421,0.325,0.464,0.976
	c0.736-0.736,1.589-1.104,2.56-1.104c0.885,0,1.635,0.341,2.248,1.024s0.92,1.723,0.92,3.12c0,1.44-0.352,2.504-1.056,3.192
	s-1.558,1.032-2.56,1.032c-0.864,0-1.558-0.192-2.08-0.576v2.08h1.072v1.248H94.015z M98.703,60.091
	c-0.395,0-0.859,0.102-1.392,0.304v4.688c0.384,0.246,0.837,0.368,1.36,0.368c1.312,0,1.968-0.896,1.968-2.688
	C100.639,60.982,99.994,60.091,98.703,60.091z"/>
</svg>
