<?xml version="1.0" encoding="utf-8"?>
<!-- Generator: Adobe Illustrator 16.0.0, SVG Export Plug-In . SVG Version: 6.00 Build 0)  -->
<!DOCTYPE svg PUBLIC "-//W3C//DTD SVG 1.1//EN" "http://www.w3.org/Graphics/SVG/1.1/DTD/svg11.dtd">
<svg version="1.1" id="Layer_1" xmlns="http://www.w3.org/2000/svg" xmlns:xlink="http://www.w3.org/1999/xlink" x="0px" y="0px"
	 width="300px" height="250px" viewBox="0 0 300 250" enable-background="new 0 0 300 250" xml:space="preserve">
<path fill="#FFFFFF" d="M35.296,79.482h-0.032L33.6,84.938h-2l-1.888-6.544c-0.107-0.298-0.277-0.448-0.512-0.448h-0.304v-1.408
	h3.712v1.408h-0.736l1.104,4.192h0.032l1.632-5.6h1.792l1.632,5.6h0.032l0.848-3.136c0.117-0.373,0.139-0.643,0.064-0.808
	c-0.075-0.165-0.272-0.248-0.592-0.248h-0.24v-1.408h3.504v1.408h-0.272c-0.32,0-0.522,0.166-0.608,0.496l-1.904,6.496h-2
	L35.296,79.482z"/>
<path fill="#FFFFFF" d="M42.272,84.938V83.61h0.608c0.096,0,0.184-0.045,0.264-0.136s0.12-0.179,0.12-0.264v-4.833
	c0-0.096-0.04-0.192-0.12-0.288c-0.08-0.096-0.168-0.144-0.264-0.144h-0.672v-1.408h3.024c0.256,0,0.384,0.299,0.384,0.896v5.776
	c0,0.096,0.042,0.187,0.128,0.271c0.085,0.086,0.176,0.128,0.272,0.128h0.608v1.328H42.272z M45.312,75.522
	c-0.246,0.24-0.544,0.36-0.896,0.36s-0.651-0.12-0.896-0.36c-0.246-0.24-0.368-0.53-0.368-0.872c0-0.341,0.123-0.634,0.368-0.88
	c0.245-0.245,0.544-0.368,0.896-0.368s0.65,0.123,0.896,0.368c0.245,0.246,0.368,0.539,0.368,0.88
	C45.68,74.992,45.557,75.283,45.312,75.522z"/>
<path fill="#FFFFFF" d="M46.848,77.946v-1.408h0.992v-2.24h2.336v2.24h1.696v1.408h-1.696v4.608c0,0.427,0.085,0.709,0.256,0.848
	c0.17,0.139,0.48,0.208,0.928,0.208h0.576v1.248c-0.438,0.139-0.938,0.208-1.504,0.208c-0.864,0-1.512-0.168-1.944-0.504
	c-0.432-0.336-0.648-0.92-0.648-1.752v-4.864H46.848z"/>
<path fill="#FFFFFF" d="M57.759,84.938V83.61h0.96v-4.304c0-0.405-0.083-0.686-0.248-0.84c-0.166-0.154-0.451-0.232-0.856-0.232
	c-0.565,0-1.179,0.107-1.84,0.32v5.056h0.976v1.328h-4.272V83.61h0.56c0.096,0,0.187-0.045,0.272-0.136
	c0.085-0.091,0.128-0.179,0.128-0.264v-7.665c0-0.096-0.043-0.192-0.128-0.288c-0.085-0.096-0.176-0.144-0.272-0.144h-0.608v-1.376
	h2.944c0.267,0,0.4,0.182,0.4,0.544v3.328c0.854-0.8,1.888-1.2,3.104-1.2c1.451,0,2.176,0.699,2.176,2.096v4.705
	c0,0.096,0.042,0.187,0.128,0.271c0.085,0.086,0.176,0.128,0.272,0.128h0.448v1.328H57.759z"/>
<path fill="#FFFFFF" d="M68.143,85.034c-0.811,0-1.461-0.218-1.952-0.655c-0.491-0.438-0.736-1.062-0.736-1.872
	c0-0.854,0.299-1.494,0.896-1.92c0.597-0.426,1.403-0.64,2.416-0.64c0.608,0,1.179,0.064,1.712,0.192v-0.88
	c0-0.832-0.485-1.248-1.456-1.248c-0.725,0-1.371,0.251-1.936,0.752h-1.072V77.05c0.949-0.426,2.106-0.64,3.472-0.64
	c1.12,0,1.955,0.203,2.504,0.608s0.824,1.078,0.824,2.016v4.176c0,0.096,0.043,0.187,0.128,0.271
	c0.085,0.086,0.176,0.128,0.272,0.128h0.448v1.12c-0.352,0.213-0.821,0.32-1.408,0.32c-0.907,0-1.467-0.353-1.68-1.057
	C70.01,84.688,69.199,85.034,68.143,85.034z M69.007,83.658c0.554,0,1.045-0.197,1.472-0.592v-1.792
	c-0.363-0.064-0.773-0.096-1.232-0.096c-1.013,0-1.52,0.411-1.52,1.232C67.727,83.242,68.154,83.658,69.007,83.658z"/>
<path fill="#FFFFFF" d="M77.167,84.938V83.61h0.56c0.096,0,0.187-0.045,0.272-0.136c0.085-0.091,0.128-0.179,0.128-0.264v-4.833
	c0-0.096-0.043-0.192-0.128-0.288c-0.085-0.096-0.176-0.144-0.272-0.144h-0.624v-1.408h2.864c0.299,0,0.458,0.405,0.48,1.216
	c0.331-0.405,0.675-0.723,1.032-0.952c0.357-0.229,0.787-0.344,1.288-0.344c0.16,0,0.331,0.027,0.512,0.08v1.728h-0.4
	c-0.992,0-1.797,0.17-2.416,0.512v4.832h1.168v1.328H77.167z"/>
<path fill="#FFFFFF" d="M91.111,83.898c-0.838,0.768-1.891,1.152-3.16,1.152c-1.27,0-2.323-0.385-3.16-1.152
	s-1.256-1.808-1.256-3.12c0-1.322,0.421-2.381,1.264-3.176c0.842-0.794,1.893-1.192,3.152-1.192c1.258,0,2.309,0.397,3.152,1.192
	c0.843,0.795,1.264,1.854,1.264,3.176C92.367,82.09,91.948,83.131,91.111,83.898z M86.471,82.866
	c0.378,0.475,0.872,0.712,1.48,0.712s1.101-0.237,1.48-0.712c0.378-0.475,0.568-1.165,0.568-2.072c0-0.917-0.189-1.621-0.568-2.112
	c-0.379-0.491-0.872-0.736-1.48-0.736s-1.102,0.246-1.48,0.736c-0.379,0.491-0.568,1.195-0.568,2.112
	C85.903,81.701,86.092,82.392,86.471,82.866z"/>
<path fill="#FFFFFF" d="M95.711,85.034c-0.811,0-1.461-0.218-1.952-0.655c-0.491-0.438-0.736-1.062-0.736-1.872
	c0-0.854,0.299-1.494,0.896-1.92c0.597-0.426,1.403-0.64,2.416-0.64c0.608,0,1.179,0.064,1.712,0.192v-0.88
	c0-0.832-0.485-1.248-1.456-1.248c-0.725,0-1.371,0.251-1.936,0.752h-1.072V77.05c0.949-0.426,2.106-0.64,3.472-0.64
	c1.12,0,1.955,0.203,2.504,0.608s0.824,1.078,0.824,2.016v4.176c0,0.096,0.043,0.187,0.128,0.271
	c0.085,0.086,0.176,0.128,0.272,0.128h0.448v1.12c-0.352,0.213-0.821,0.32-1.408,0.32c-0.907,0-1.467-0.353-1.68-1.057
	C97.578,84.688,96.767,85.034,95.711,85.034z M96.575,83.658c0.554,0,1.045-0.197,1.472-0.592v-1.792
	c-0.363-0.064-0.773-0.096-1.232-0.096c-1.013,0-1.52,0.411-1.52,1.232C95.295,83.242,95.722,83.658,96.575,83.658z"/>
<path fill="#FFFFFF" d="M105.263,85.066c-0.448,0-0.87-0.072-1.264-0.216c-0.395-0.145-0.763-0.371-1.104-0.68
	c-0.342-0.31-0.614-0.75-0.816-1.32c-0.203-0.571-0.304-1.24-0.304-2.008c0-0.757,0.109-1.432,0.328-2.024
	c0.219-0.592,0.509-1.056,0.872-1.392c0.363-0.336,0.75-0.589,1.16-0.76c0.411-0.17,0.829-0.256,1.256-0.256
	c1.002,0,1.803,0.363,2.4,1.088v-2.384h-1.088v-1.376h3.024c0.267,0,0.4,0.182,0.4,0.544v8.896c0,0.096,0.042,0.191,0.128,0.288
	c0.085,0.096,0.176,0.144,0.272,0.144h0.576v1.328h-2.848c-0.235,0-0.379-0.314-0.432-0.944
	C107.204,84.709,106.351,85.066,105.263,85.066z M106.047,83.658c0.64,0,1.221-0.224,1.744-0.672v-4.608
	c-0.534-0.245-1.051-0.368-1.552-0.368c-0.619,0-1.123,0.214-1.512,0.64c-0.389,0.427-0.584,1.136-0.584,2.128
	C104.143,82.698,104.777,83.658,106.047,83.658z"/>
</svg>
