<?xml version="1.0" encoding="utf-8"?>
<!-- Generator: Adobe Illustrator 16.0.0, SVG Export Plug-In . SVG Version: 6.00 Build 0)  -->
<!DOCTYPE svg PUBLIC "-//W3C//DTD SVG 1.1//EN" "http://www.w3.org/Graphics/SVG/1.1/DTD/svg11.dtd">
<svg version="1.1" id="Layer_1" xmlns="http://www.w3.org/2000/svg" xmlns:xlink="http://www.w3.org/1999/xlink" x="0px" y="0px"
	 width="300px" height="250px" viewBox="0 0 300 250" enable-background="new 0 0 300 250" xml:space="preserve">
<path d="M25.48,92.544h-0.032L23.784,98h-2l-1.888-6.544c-0.107-0.298-0.277-0.448-0.512-0.448H19.08V89.6h3.712v1.408h-0.736
	L23.16,95.2h0.032l1.632-5.6h1.792l1.632,5.6h0.032l0.848-3.136c0.117-0.373,0.139-0.643,0.064-0.808
	c-0.075-0.165-0.272-0.248-0.592-0.248h-0.24V89.6h3.504v1.408h-0.272c-0.32,0-0.522,0.166-0.608,0.496L29.08,98h-2L25.48,92.544z"
	/>
<path d="M37.256,98v-1.328h0.96v-4.304c0-0.405-0.083-0.686-0.248-0.84c-0.166-0.154-0.451-0.232-0.856-0.232
	c-0.565,0-1.179,0.107-1.84,0.32v5.056h0.976V98h-4.272v-1.328h0.56c0.096,0,0.187-0.045,0.272-0.136
	c0.085-0.091,0.128-0.179,0.128-0.264v-7.664c0-0.096-0.043-0.192-0.128-0.288c-0.085-0.096-0.176-0.144-0.272-0.144h-0.608V86.8
	h2.944c0.267,0,0.4,0.182,0.4,0.544v3.328c0.854-0.8,1.888-1.2,3.104-1.2c1.451,0,2.176,0.699,2.176,2.096v4.704
	c0,0.096,0.042,0.187,0.128,0.272c0.085,0.085,0.176,0.128,0.272,0.128H41.4V98H37.256z"/>
<path d="M44.68,98.096c-0.811,0-1.461-0.219-1.952-0.656c-0.491-0.437-0.736-1.061-0.736-1.872c0-0.853,0.299-1.493,0.896-1.92
	c0.597-0.426,1.403-0.64,2.416-0.64c0.608,0,1.179,0.064,1.712,0.192v-0.88c0-0.832-0.485-1.248-1.456-1.248
	c-0.725,0-1.371,0.251-1.936,0.752h-1.072v-1.712c0.949-0.426,2.106-0.64,3.472-0.64c1.12,0,1.955,0.203,2.504,0.608
	s0.824,1.078,0.824,2.016v4.176c0,0.096,0.043,0.187,0.128,0.272c0.085,0.085,0.176,0.128,0.272,0.128H50.2v1.12
	c-0.352,0.213-0.821,0.32-1.408,0.32c-0.907,0-1.467-0.352-1.68-1.056C46.546,97.75,45.736,98.096,44.68,98.096z M45.544,96.72
	c0.554,0,1.045-0.197,1.472-0.592v-1.792c-0.363-0.064-0.773-0.096-1.232-0.096c-1.013,0-1.52,0.411-1.52,1.232
	C44.264,96.304,44.69,96.72,45.544,96.72z"/>
<path d="M50.44,91.008V89.6h0.992v-2.24h2.336v2.24h1.696v1.408h-1.696v4.608c0,0.427,0.085,0.709,0.256,0.848
	c0.17,0.139,0.48,0.208,0.928,0.208h0.576v1.248c-0.438,0.139-0.938,0.208-1.504,0.208c-0.864,0-1.512-0.168-1.944-0.504
	c-0.432-0.336-0.648-0.92-0.648-1.752v-4.864H50.44z"/>
<path d="M62.167,100.592h-1.904V99.36c0.96-0.288,1.717-0.779,2.272-1.472l-2.768-6.432c-0.128-0.298-0.293-0.448-0.496-0.448
	h-0.304V89.6h4.064v1.408h-1.104l1.808,4.336l1.344-3.28c0.149-0.309,0.203-0.562,0.16-0.76c-0.043-0.197-0.224-0.296-0.544-0.296
	h-0.256V89.6h3.696v1.408h-0.352c-0.246,0-0.438,0.166-0.576,0.496l-2.752,6.192C63.836,99.04,63.074,100.005,62.167,100.592z"/>
<path d="M75.968,96.96c-0.838,0.768-1.891,1.152-3.16,1.152c-1.27,0-2.323-0.384-3.16-1.152s-1.256-1.808-1.256-3.12
	c0-1.322,0.421-2.381,1.264-3.176c0.842-0.794,1.893-1.192,3.152-1.192c1.258,0,2.309,0.397,3.152,1.192
	c0.843,0.795,1.264,1.854,1.264,3.176C77.224,95.152,76.805,96.192,75.968,96.96z M71.328,95.928
	c0.378,0.475,0.872,0.712,1.48,0.712s1.101-0.237,1.48-0.712c0.378-0.475,0.568-1.166,0.568-2.072c0-0.917-0.189-1.621-0.568-2.112
	c-0.379-0.491-0.872-0.736-1.48-0.736s-1.102,0.246-1.48,0.736c-0.379,0.491-0.568,1.195-0.568,2.112
	C70.76,94.763,70.949,95.454,71.328,95.928z"/>
<path d="M80.887,98.112c-1.504,0-2.256-0.693-2.256-2.08v-4.624c0-0.096-0.045-0.187-0.136-0.272
	c-0.091-0.085-0.179-0.128-0.264-0.128h-0.544V89.6h3.28v5.696c0,0.438,0.099,0.742,0.296,0.912
	c0.197,0.171,0.494,0.256,0.888,0.256c0.512,0,1.099-0.133,1.76-0.4v-5.056h-1.104V89.6h3.44v6.64c0,0.096,0.042,0.192,0.128,0.288
	c0.085,0.096,0.176,0.144,0.272,0.144h0.544V98h-2.784c-0.139,0-0.245-0.072-0.32-0.216s-0.128-0.418-0.16-0.824
	C83.106,97.728,82.093,98.112,80.887,98.112z"/>
<path d="M87.959,90.384l-0.544-2.416V86.8h2.24v1.168l-0.544,2.416H87.959z"/>
<path d="M90.439,98v-1.328H91c0.096,0,0.187-0.045,0.272-0.136c0.085-0.091,0.128-0.179,0.128-0.264V91.44
	c0-0.096-0.043-0.192-0.128-0.288c-0.085-0.096-0.176-0.144-0.272-0.144h-0.624V89.6h2.864c0.299,0,0.458,0.405,0.48,1.216
	c0.331-0.405,0.675-0.723,1.032-0.952c0.357-0.229,0.787-0.344,1.288-0.344c0.16,0,0.331,0.027,0.512,0.08v1.728h-0.4
	c-0.992,0-1.797,0.17-2.416,0.512v4.832h1.168V98H90.439z"/>
<path d="M104.807,94.24h-5.616c0.096,1.621,0.821,2.432,2.176,2.432c0.48,0,0.842-0.072,1.088-0.216
	c0.245-0.144,0.496-0.376,0.752-0.696h1.328v1.536c-0.896,0.544-2.016,0.816-3.36,0.816c-1.43,0-2.515-0.376-3.256-1.128
	s-1.112-1.8-1.112-3.144c0-1.344,0.384-2.408,1.152-3.192s1.787-1.176,3.056-1.176c2.549,0,3.824,1.376,3.824,4.128
	c0,0.117-0.006,0.25-0.016,0.4C104.812,94.149,104.807,94.229,104.807,94.24z M101.015,90.864c-1.024,0-1.622,0.683-1.792,2.048
	h3.28c-0.042-0.726-0.181-1.248-0.416-1.568C101.853,91.024,101.495,90.864,101.015,90.864z"/>
<path d="M116.455,94.24h-5.616c0.096,1.621,0.821,2.432,2.176,2.432c0.48,0,0.842-0.072,1.088-0.216
	c0.245-0.144,0.496-0.376,0.752-0.696h1.328v1.536c-0.896,0.544-2.016,0.816-3.36,0.816c-1.43,0-2.515-0.376-3.256-1.128
	s-1.112-1.8-1.112-3.144c0-1.344,0.384-2.408,1.152-3.192s1.787-1.176,3.056-1.176c2.549,0,3.824,1.376,3.824,4.128
	c0,0.117-0.006,0.25-0.016,0.4C116.46,94.149,116.455,94.229,116.455,94.24z M112.663,90.864c-1.024,0-1.622,0.683-1.792,2.048h3.28
	c-0.042-0.726-0.181-1.248-0.416-1.568C113.5,91.024,113.143,90.864,112.663,90.864z"/>
<path d="M117.079,98v-1.328h0.56c0.096,0,0.187-0.045,0.272-0.136c0.085-0.091,0.128-0.179,0.128-0.264V91.44
	c0-0.096-0.043-0.192-0.128-0.288c-0.085-0.096-0.176-0.144-0.272-0.144h-0.624V89.6h2.864c0.149,0,0.261,0.078,0.336,0.232
	c0.075,0.155,0.123,0.44,0.144,0.856c0.864-0.811,1.904-1.216,3.12-1.216c1.451,0,2.176,0.699,2.176,2.096v4.704
	c0,0.096,0.042,0.187,0.128,0.272c0.085,0.085,0.176,0.128,0.272,0.128h0.448V98h-4.144v-1.328h0.96v-4.304
	c0-0.405-0.083-0.686-0.248-0.84c-0.166-0.154-0.451-0.232-0.856-0.232c-0.565,0-1.179,0.107-1.84,0.32v5.056h0.976V98H117.079z"/>
<path d="M126.743,91.008V89.6h0.992v-2.24h2.336v2.24h1.696v1.408h-1.696v4.608c0,0.427,0.085,0.709,0.256,0.848
	c0.17,0.139,0.48,0.208,0.928,0.208h0.576v1.248c-0.438,0.139-0.938,0.208-1.504,0.208c-0.864,0-1.512-0.168-1.944-0.504
	c-0.432-0.336-0.648-0.92-0.648-1.752v-4.864H126.743z"/>
<path d="M132.375,98v-1.328h0.608c0.096,0,0.184-0.045,0.264-0.136s0.12-0.179,0.12-0.264V91.44c0-0.096-0.04-0.192-0.12-0.288
	c-0.08-0.096-0.168-0.144-0.264-0.144h-0.672V89.6h3.024c0.256,0,0.384,0.299,0.384,0.896v5.776c0,0.096,0.042,0.187,0.128,0.272
	c0.085,0.085,0.176,0.128,0.272,0.128h0.608V98H132.375z M135.415,88.584c-0.246,0.24-0.544,0.36-0.896,0.36s-0.651-0.12-0.896-0.36
	c-0.246-0.24-0.368-0.53-0.368-0.872c0-0.341,0.123-0.634,0.368-0.88c0.245-0.245,0.544-0.368,0.896-0.368s0.65,0.123,0.896,0.368
	c0.245,0.246,0.368,0.539,0.368,0.88C135.782,88.054,135.66,88.344,135.415,88.584z"/>
<path d="M136.951,91.008V89.6h0.992v-2.24h2.336v2.24h1.696v1.408h-1.696v4.608c0,0.427,0.085,0.709,0.256,0.848
	c0.17,0.139,0.48,0.208,0.928,0.208h0.576v1.248c-0.438,0.139-0.938,0.208-1.504,0.208c-0.864,0-1.512-0.168-1.944-0.504
	c-0.432-0.336-0.648-0.92-0.648-1.752v-4.864H136.951z"/>
<path d="M142.582,98v-1.328h0.624c0.096,0,0.187-0.045,0.272-0.136s0.128-0.179,0.128-0.264v-7.664c0-0.096-0.042-0.192-0.128-0.288
	c-0.085-0.096-0.176-0.144-0.272-0.144h-0.672V86.8h3.008c0.267,0,0.4,0.182,0.4,0.544v8.928c0,0.096,0.045,0.187,0.136,0.272
	c0.09,0.085,0.178,0.128,0.264,0.128h0.656V98H142.582z"/>
<path d="M155.446,94.24h-5.616c0.096,1.621,0.821,2.432,2.176,2.432c0.48,0,0.843-0.072,1.088-0.216
	c0.246-0.144,0.496-0.376,0.752-0.696h1.328v1.536c-0.896,0.544-2.016,0.816-3.359,0.816c-1.43,0-2.515-0.376-3.256-1.128
	s-1.112-1.8-1.112-3.144c0-1.344,0.384-2.408,1.152-3.192s1.787-1.176,3.056-1.176c2.549,0,3.824,1.376,3.824,4.128
	c0,0.117-0.006,0.25-0.016,0.4C155.451,94.149,155.446,94.229,155.446,94.24z M151.654,90.864c-1.024,0-1.622,0.683-1.792,2.048
	h3.28c-0.043-0.726-0.182-1.248-0.416-1.568C152.492,91.024,152.135,90.864,151.654,90.864z"/>
<path d="M159.638,98.128c-0.448,0-0.87-0.072-1.264-0.216c-0.396-0.144-0.763-0.371-1.104-0.68c-0.342-0.309-0.613-0.749-0.816-1.32
	c-0.202-0.571-0.303-1.24-0.303-2.008c0-0.757,0.108-1.432,0.327-2.024c0.219-0.592,0.509-1.056,0.872-1.392
	c0.363-0.336,0.75-0.589,1.16-0.76c0.41-0.17,0.829-0.256,1.256-0.256c1.002,0,1.803,0.363,2.4,1.088v-2.384h-1.088V86.8h3.023
	c0.267,0,0.4,0.182,0.4,0.544v8.896c0,0.096,0.043,0.192,0.128,0.288c0.085,0.096,0.176,0.144,0.272,0.144h0.575V98h-2.848
	c-0.235,0-0.379-0.314-0.433-0.944C161.579,97.771,160.726,98.128,159.638,98.128z M160.422,96.72c0.641,0,1.221-0.224,1.744-0.672
	V91.44c-0.533-0.245-1.051-0.368-1.553-0.368c-0.618,0-1.122,0.214-1.512,0.64c-0.389,0.427-0.584,1.136-0.584,2.128
	C158.518,95.76,159.152,96.72,160.422,96.72z"/>
<path d="M168.902,91.008V89.6h0.991v-2.24h2.337v2.24h1.695v1.408h-1.695v4.608c0,0.427,0.084,0.709,0.256,0.848
	c0.17,0.139,0.479,0.208,0.928,0.208h0.576v1.248c-0.438,0.139-0.939,0.208-1.504,0.208c-0.865,0-1.513-0.168-1.944-0.504
	c-0.433-0.336-0.648-0.92-0.648-1.752v-4.864H168.902z"/>
<path d="M182.094,96.96c-0.838,0.768-1.891,1.152-3.16,1.152s-2.322-0.384-3.16-1.152s-1.256-1.808-1.256-3.12
	c0-1.322,0.422-2.381,1.264-3.176c0.843-0.794,1.894-1.192,3.152-1.192c1.258,0,2.309,0.397,3.152,1.192
	c0.842,0.795,1.264,1.854,1.264,3.176C183.35,95.152,182.931,96.192,182.094,96.96z M177.453,95.928
	c0.379,0.475,0.873,0.712,1.48,0.712s1.102-0.237,1.48-0.712c0.378-0.475,0.567-1.166,0.567-2.072c0-0.917-0.189-1.621-0.567-2.112
	c-0.379-0.491-0.873-0.736-1.48-0.736s-1.102,0.246-1.48,0.736s-0.567,1.195-0.567,2.112
	C176.886,94.763,177.074,95.454,177.453,95.928z"/>
<path d="M184.886,98.096c-0.374,0-0.686-0.123-0.937-0.368c-0.25-0.245-0.375-0.549-0.375-0.912c0-0.362,0.128-0.669,0.384-0.92
	c0.256-0.25,0.565-0.376,0.928-0.376s0.673,0.125,0.929,0.376c0.256,0.251,0.383,0.558,0.383,0.92c0,0.363-0.127,0.667-0.383,0.912
	C185.559,97.974,185.248,98.096,184.886,98.096z"/>
</svg>
