<?xml version="1.0" encoding="utf-8"?>
<!-- Generator: Adobe Illustrator 16.0.0, SVG Export Plug-In . SVG Version: 6.00 Build 0)  -->
<!DOCTYPE svg PUBLIC "-//W3C//DTD SVG 1.1//EN" "http://www.w3.org/Graphics/SVG/1.1/DTD/svg11.dtd">
<svg version="1.1" id="Layer_1" xmlns="http://www.w3.org/2000/svg" xmlns:xlink="http://www.w3.org/1999/xlink" x="0px" y="0px"
	 width="300px" height="250px" viewBox="0 0 300 250" enable-background="new 0 0 300 250" xml:space="preserve">
<path d="M26.744,71.056h-0.032L24.968,78h-2.704l-2.304-9.392c-0.118-0.288-0.293-0.432-0.528-0.432h-0.256V66.8h4.528v1.376h-1.328
	l1.568,6.96h0.032l2.08-8.336h1.904l2.064,8.336h0.032l1.408-5.872c0.246-0.726,0.064-1.088-0.544-1.088h-0.592V66.8h4.096v1.376
	H34.2c-0.299,0-0.501,0.166-0.608,0.496L31.176,78h-2.704L26.744,71.056z"/>
<path d="M42.024,74.24h-5.616c0.096,1.621,0.821,2.432,2.176,2.432c0.48,0,0.842-0.072,1.088-0.216
	c0.245-0.144,0.496-0.376,0.752-0.696h1.328v1.536c-0.896,0.544-2.016,0.816-3.36,0.816c-1.43,0-2.515-0.376-3.256-1.128
	s-1.112-1.8-1.112-3.144c0-1.344,0.384-2.408,1.152-3.192s1.787-1.176,3.056-1.176c2.549,0,3.824,1.376,3.824,4.128
	c0,0.117-0.006,0.25-0.016,0.4C42.029,74.149,42.024,74.229,42.024,74.24z M38.232,70.864c-1.024,0-1.622,0.683-1.792,2.048h3.28
	c-0.042-0.726-0.181-1.248-0.416-1.568C39.069,71.024,38.712,70.864,38.232,70.864z"/>
<path d="M50.024,78.112c-1.43,0-2.512-0.373-3.248-1.12s-1.104-1.803-1.104-3.168c0-1.344,0.402-2.405,1.208-3.184
	c0.805-0.779,1.891-1.168,3.256-1.168c1.216,0,2.16,0.144,2.832,0.432v1.92H51.56c-0.15-0.299-0.333-0.518-0.552-0.656
	s-0.525-0.208-0.92-0.208c-1.355,0-2.032,0.96-2.032,2.88c0,0.992,0.163,1.709,0.488,2.152c0.325,0.442,0.834,0.664,1.528,0.664
	c0.32,0,0.605-0.05,0.856-0.152c0.25-0.101,0.435-0.205,0.552-0.312c0.117-0.106,0.245-0.25,0.384-0.432H53v1.648
	C52.168,77.877,51.176,78.112,50.024,78.112z"/>
<path d="M56.472,78.096c-0.811,0-1.461-0.219-1.952-0.656c-0.491-0.437-0.736-1.061-0.736-1.872c0-0.853,0.299-1.493,0.896-1.92
	c0.597-0.426,1.403-0.64,2.416-0.64c0.608,0,1.179,0.064,1.712,0.192v-0.88c0-0.832-0.485-1.248-1.456-1.248
	c-0.725,0-1.371,0.251-1.936,0.752h-1.072v-1.712c0.949-0.426,2.106-0.64,3.472-0.64c1.12,0,1.955,0.203,2.504,0.608
	s0.824,1.078,0.824,2.016v4.176c0,0.096,0.043,0.187,0.128,0.272c0.085,0.085,0.176,0.128,0.272,0.128h0.448v1.12
	c-0.352,0.213-0.821,0.32-1.408,0.32c-0.907,0-1.467-0.352-1.68-1.056C58.338,77.75,57.528,78.096,56.472,78.096z M57.336,76.72
	c0.554,0,1.045-0.197,1.472-0.592v-1.792c-0.363-0.064-0.773-0.096-1.232-0.096c-1.013,0-1.52,0.411-1.52,1.232
	C56.056,76.304,56.482,76.72,57.336,76.72z"/>
<path d="M62.536,78v-1.328h0.56c0.096,0,0.187-0.045,0.272-0.136c0.085-0.091,0.128-0.179,0.128-0.264V71.44
	c0-0.096-0.043-0.192-0.128-0.288c-0.085-0.096-0.176-0.144-0.272-0.144h-0.624V69.6h2.864c0.149,0,0.261,0.078,0.336,0.232
	c0.075,0.155,0.123,0.44,0.144,0.856c0.864-0.811,1.904-1.216,3.12-1.216c1.451,0,2.176,0.699,2.176,2.096v4.704
	c0,0.096,0.042,0.187,0.128,0.272c0.085,0.085,0.176,0.128,0.272,0.128h0.448V78h-4.144v-1.328h0.96v-4.304
	c0-0.405-0.083-0.686-0.248-0.84c-0.166-0.154-0.451-0.232-0.856-0.232c-0.565,0-1.179,0.107-1.84,0.32v5.056h0.976V78H62.536z"/>
<path d="M78.792,80.8c-2.4,0-3.6-0.646-3.6-1.936c0-0.778,0.49-1.365,1.472-1.76c-0.459-0.234-0.688-0.64-0.688-1.216
	c0-0.651,0.326-1.189,0.976-1.616c-0.736-0.48-1.104-1.168-1.104-2.064c0-0.821,0.312-1.482,0.936-1.984s1.443-0.752,2.456-0.752
	c0.384,0,0.763,0.042,1.136,0.128h2.944v1.408h-0.496c-0.075,0-0.152,0.032-0.232,0.096s-0.12,0.128-0.12,0.192
	c0.106,0.299,0.16,0.603,0.16,0.912c0,0.811-0.31,1.454-0.928,1.928s-1.44,0.712-2.464,0.712c-0.555,0-1.067-0.075-1.536-0.224
	c-0.042,0.16-0.064,0.341-0.064,0.544c0,0.341,0.235,0.512,0.704,0.512h2.336c0.896,0,1.56,0.17,1.992,0.512
	c0.432,0.342,0.648,0.87,0.648,1.584c0,0.938-0.363,1.677-1.088,2.216C81.506,80.53,80.36,80.8,78.792,80.8z M78.888,79.424
	c1.536,0,2.304-0.368,2.304-1.104c0-0.49-0.374-0.736-1.12-0.736h-2.848c-0.064,0.192-0.096,0.438-0.096,0.736
	c0,0.374,0.138,0.651,0.416,0.832C77.821,79.333,78.269,79.424,78.888,79.424z M78.28,73.272c0.234,0.251,0.555,0.376,0.96,0.376
	s0.725-0.125,0.96-0.376c0.234-0.25,0.352-0.605,0.352-1.064c0-0.469-0.118-0.827-0.352-1.072c-0.235-0.246-0.555-0.368-0.96-0.368
	s-0.726,0.123-0.96,0.368c-0.235,0.245-0.352,0.603-0.352,1.072C77.928,72.667,78.045,73.021,78.28,73.272z"/>
<path d="M91.576,74.24h-5.616c0.096,1.621,0.821,2.432,2.176,2.432c0.48,0,0.842-0.072,1.088-0.216
	c0.245-0.144,0.496-0.376,0.752-0.696h1.328v1.536c-0.896,0.544-2.016,0.816-3.36,0.816c-1.43,0-2.515-0.376-3.256-1.128
	s-1.112-1.8-1.112-3.144c0-1.344,0.384-2.408,1.152-3.192s1.787-1.176,3.056-1.176c2.549,0,3.824,1.376,3.824,4.128
	c0,0.117-0.006,0.25-0.016,0.4C91.581,74.149,91.576,74.229,91.576,74.24z M87.784,70.864c-1.024,0-1.622,0.683-1.792,2.048h3.28
	c-0.042-0.726-0.181-1.248-0.416-1.568C88.621,71.024,88.264,70.864,87.784,70.864z"/>
<path d="M92.136,71.008V69.6h0.992v-2.24h2.336v2.24h1.696v1.408h-1.696v4.608c0,0.427,0.085,0.709,0.256,0.848
	c0.17,0.139,0.48,0.208,0.928,0.208h0.576v1.248c-0.438,0.139-0.938,0.208-1.504,0.208c-0.864,0-1.512-0.168-1.944-0.504
	c-0.432-0.336-0.648-0.92-0.648-1.752v-4.864H92.136z"/>
<path d="M103.863,80.592h-1.904V79.36c0.96-0.288,1.717-0.779,2.272-1.472l-2.768-6.432c-0.128-0.298-0.293-0.448-0.496-0.448
	h-0.304V69.6h4.064v1.408h-1.104l1.808,4.336l1.344-3.28c0.149-0.309,0.203-0.562,0.16-0.76c-0.043-0.197-0.224-0.296-0.544-0.296
	h-0.256V69.6h3.696v1.408h-0.352c-0.246,0-0.438,0.166-0.576,0.496l-2.752,6.192C105.532,79.04,104.77,80.005,103.863,80.592z"/>
<path d="M117.663,76.96c-0.838,0.768-1.891,1.152-3.16,1.152c-1.27,0-2.323-0.384-3.16-1.152s-1.256-1.808-1.256-3.12
	c0-1.322,0.421-2.381,1.264-3.176c0.842-0.794,1.893-1.192,3.152-1.192c1.258,0,2.309,0.397,3.152,1.192
	c0.843,0.795,1.264,1.854,1.264,3.176C118.919,75.152,118.5,76.192,117.663,76.96z M113.023,75.928
	c0.378,0.475,0.872,0.712,1.48,0.712s1.101-0.237,1.48-0.712c0.378-0.475,0.568-1.166,0.568-2.072c0-0.917-0.189-1.621-0.568-2.112
	c-0.379-0.491-0.872-0.736-1.48-0.736s-1.102,0.246-1.48,0.736c-0.379,0.491-0.568,1.195-0.568,2.112
	C112.455,74.763,112.644,75.454,113.023,75.928z"/>
<path d="M122.583,78.112c-1.504,0-2.256-0.693-2.256-2.08v-4.624c0-0.096-0.045-0.187-0.136-0.272
	c-0.091-0.085-0.179-0.128-0.264-0.128h-0.544V69.6h3.28v5.696c0,0.438,0.099,0.742,0.296,0.912
	c0.197,0.171,0.494,0.256,0.888,0.256c0.512,0,1.099-0.133,1.76-0.4v-5.056h-1.104V69.6h3.44v6.64c0,0.096,0.042,0.192,0.128,0.288
	c0.085,0.096,0.176,0.144,0.272,0.144h0.544V78h-2.784c-0.139,0-0.245-0.072-0.32-0.216s-0.128-0.418-0.16-0.824
	C124.802,77.728,123.789,78.112,122.583,78.112z"/>
</svg>
