<?xml version="1.0" standalone="no"?>
<!DOCTYPE svg PUBLIC "-//W3C//DTD SVG 1.1//EN" "http://www.w3.org/Graphics/SVG/1.1/DTD/svg11.dtd" >
<svg xmlns="http://www.w3.org/2000/svg">
<metadata>
Created by FontPrep 20130207 at Mon Aug 29 14:50:09 2016
 By Andy Stewart
Copyright (C) 2006, 2007 Hoefler &#38; Frere-Jones. http://www.typography.com
</metadata>
<defs>
<font id="13af3003001cba3805884d1b06b023c9" horiz-adv-x='1024' >
  <font-face 
    font-family="GothamRounded-Medium"
    font-weight="500"
    font-stretch="normal"
    units-per-em="2048"
    panose-1="2 0 6 3 0 0 0 0 0 0"
    ascent="1638"
    descent="-410"
    x-height="1081"
    cap-height="1444"
    bbox="-100.036 -338 2167 1645"
    underline-thickness="102"
    underline-position="-102"
    unicode-range="U+0020-007A"
  />
<missing-glyph horiz-adv-x="1024" 
 />
    <glyph glyph-name=".notdef" horiz-adv-x="1024" 
 />
    <glyph glyph-name=".null" horiz-adv-x="0" 
 />
    <glyph glyph-name="nonmarkingreturn" horiz-adv-x="681" 
 />
    <glyph glyph-name="space" unicode=" " horiz-adv-x="614" 
 />
    <glyph glyph-name="exclam" unicode="!" horiz-adv-x="618" 
d="M164 152q0 59 41 100q45 41 106 41t103 -41t41 -100v-21q0 -59 -41 -100q-40 -41 -102 -41t-107 41q-41 41 -41 100v21zM236 1440h147q37 0 55 -27q23 -23 19 -61l-72 -836q-4 -35 -25 -53q-18 -21 -50 -21t-52 20t-22 54l-72 836q-4 40 16 64t56 24z" />
    <glyph glyph-name="quotedbl" unicode="&#x22;" horiz-adv-x="997" 
d="M281 1440h79q32 0 50 -18t18 -42q0 -22 -8 -53l-150 -455q-20 -63 -73 -63q-31 1 -53 21t-17 57l37 438q2 47 35 81t82 34zM729 1440h82q29 0 52 -24t5 -89l-149 -455q-20 -63 -74 -63q-31 -1 -51 21t-16 57l34 438q2 47 35 81t82 34z" />
    <glyph glyph-name="numbersign" unicode="#" horiz-adv-x="1433" 
d="M526 543h320l61 356h-319zM176 330q-45 0 -76 30q-30 30 -30 74q0 43 30 78q31 31 76 31h131l62 356h-119q-43 0 -75 32t-32 75q0 42 32 74t75 32h156l40 244q6 40 36 64t75 24t77 -38t25 -87l-36 -207h321l41 244q6 40 37 64t76 24t78 -39q31 -41 22 -86l-35 -207h94
q43 0 75 -31t32 -75t-32 -75q-32 -32 -75 -32h-131l-61 -356h117q46 0 76 -31t30 -75t-31 -76t-75 -31h-154l-43 -252q-6 -37 -35 -64q-32 -24 -76 -24t-78 38t-24 87l39 215h-322l-43 -252q-6 -37 -36 -62q-27 -26 -74 -26t-79 37t-24 88l37 215h-94z" />
    <glyph glyph-name="dollar" unicode="$" horiz-adv-x="1314" 
d="M395 1058q0 -69 40 -113t157 -81v363q-96 -10 -146 -55t-51 -114zM956 383q0 72 -43 117q-45 45 -159 80v-373q94 8 148 56t54 120zM584 1475q0 37 26 63t64 25q36 0 62 -26t26 -62v-45q172 -23 317 -113q61 -35 61 -90t-32 -88q-33 -33 -73 -33t-70 18q-115 70 -211 90
v-393q231 -57 340 -157q104 -102 104 -268t-119 -269q-117 -109 -317 -127v-123q0 -37 -26 -63t-62 -25q-36 0 -64 26q-27 26 -26 62v127q-225 25 -420 160q-55 33 -55 89t32 89q33 33 76 33t72 -23q147 -109 303 -137v403q-226 58 -332 154t-106 264t118 275
q121 106 312 121v43z" />
    <glyph glyph-name="percent" unicode="%" horiz-adv-x="1738" 
d="M1147 350q0 -90 46 -150t114 -59q67 -1 109 59t42 146v4q0 90 -45 150q-47 59 -115 59t-110 -59t-41 -146v-4zM281 1083q-1 -89 45 -149t114 -60t109 60q43 57 43 145v4q0 90 -45 150q-47 59 -115 59t-108 -59q-43 -57 -43 -146v-4zM1640 350q0 -152 -95 -259t-243 -107
t-243 104q-94 104 -94 258v4q0 156 96 260q91 106 241 106t244 -106q94 -102 94 -256v-4zM401 -10q-41 0 -63 24t-23 53q0 28 19 56l940 1284q20 37 62 37t66 -24q46 -46 5 -109l-940 -1284q-25 -37 -66 -37zM434 717q-147 0 -241 104t-95 258v4q0 150 95 260
q99 107 247 107t240 -107q94 -102 94 -256v-4q0 -150 -94 -260q-99 -106 -246 -106z" />
    <glyph glyph-name="ampersand" unicode="&#x26;" horiz-adv-x="1425" 
d="M573 188q139 0 273 127l-320 326q-193 -82 -192 -240v-4q0 -89 68 -149t171 -60zM836 1098q0 72 -45 116t-118 46q-73 0 -124 -48q-47 -51 -47 -125v-4q-1 -92 108 -213q113 38 169 92t57 132v4zM1339 92q1 -48 -31 -80t-80 -32t-87 38l-150 152q-197 -190 -442 -190
q-209 0 -336 112q-133 113 -133 297v4q0 268 305 402q-119 150 -119 299v4q0 150 113 255t289 105t284 -98q106 -100 107 -248v-4q0 -252 -314 -373l244 -248q57 80 119 205q29 60 84 60t87 -32t32 -68t-15 -62q-63 -119 -155 -252l159 -160q39 -39 39 -86z" />
    <glyph glyph-name="quotesingle" unicode="'" horiz-adv-x="550" 
d="M281 1440h79q30 0 50 -18t20 -42q0 -22 -8 -53l-150 -455q-20 -63 -75 -63q-31 1 -53 21t-17 57l37 438q2 47 35 81t82 34z" />
    <glyph glyph-name="parenleft" unicode="(" horiz-adv-x="903" 
d="M803 -168q-1 -44 -29 -76t-68 -32t-57 14q-520 311 -520 850t520 850q17 14 57 14t68 -32t29 -76q0 -44 -41 -76q-193 -135 -289 -300t-96 -380t96 -380t289 -300q41 -31 41 -76z" />
    <glyph glyph-name="parenright" unicode=")" horiz-adv-x="903" 
d="M196 -276q-40 0 -69 32t-29 74q0 43 43 78q193 135 289 300t96 380t-96 380t-289 300q-43 35 -43 78q0 42 29 74t69 32t56 -14q522 -311 522 -850t-522 -850q-16 -14 -56 -14z" />
    <glyph glyph-name="asterisk" unicode="*" horiz-adv-x="880" 
d="M125 975q0 35 47 57l180 78l-180 80q-47 22 -47 56t20 54q44 44 99 0l153 -112l-20 182q-4 34 14 56t50 22t48 -23q18 -18 15 -53l-21 -184l154 112q57 42 100 3q19 -19 19 -55t-47 -58l-181 -80l181 -78q47 -24 47 -58t-20 -54q-42 -41 -99 0l-154 112l21 -182
q4 -34 -14 -56t-51 -22q-32 0 -48 23q-18 18 -14 53l20 184l-153 -112q-58 -40 -98 0q-20 20 -21 55z" />
    <glyph glyph-name="plus" unicode="+" horiz-adv-x="1298" 
d="M532 324v284h-290q-47 0 -80 33t-33 81t35 77q29 35 78 35h290v284q0 49 34 83t83 34t82 -35q35 -31 35 -82v-284h291q49 0 78 -35q35 -29 35 -77t-34 -81q-32 -33 -79 -33h-291v-284q0 -51 -35 -82q-33 -35 -82 -35t-83 34t-34 83z" />
    <glyph glyph-name="comma" unicode="," horiz-adv-x="550" 
d="M61 -240q0 45 48 56q145 47 139 184q-47 14 -84 51q-33 39 -33 88v17q0 59 39 98q40 39 104 39t104 -47t40 -133v-23q0 -197 -96 -292t-197 -95q-64 0 -64 57z" />
    <glyph glyph-name="hyphen" unicode="-" horiz-adv-x="835" 
d="M225 506q-47 0 -86 35q-35 39 -35 88t36 85t85 36h385q49 0 85 -36t36 -85t-35 -88q-39 -35 -86 -35h-385z" />
    <glyph glyph-name="period" unicode="." horiz-adv-x="550" 
d="M131 152q0 59 41 100t103 41q61 0 103 -41t42 -100v-21q0 -59 -41 -100t-103 -41t-104 41q-41 41 -41 100v21z" />
    <glyph glyph-name="slash" unicode="/" horiz-adv-x="1067" 
d="M0 -183q0 30 12 54l838 1716q27 57 90 58q37 0 68 -27q28 -34 28 -58t-10 -59l-840 -1716q-27 -57 -88 -57q-39 0 -69 26q-29 33 -29 63z" />
    <glyph glyph-name="zero" unicode="0" horiz-adv-x="1482" 
d="M741 203q164 0 267 145q98 147 98 365v4q0 215 -101 365t-263 149t-264 -145q-101 -144 -101 -365v-4q0 -219 102 -365q98 -149 262 -149zM736 -25q-276 0 -445 213q-174 207 -174 525v4q0 311 174 528q179 213 455 213t446 -213q174 -207 174 -524v-4q0 -311 -174 -529
q-180 -213 -456 -213z" />
    <glyph glyph-name="one" unicode="1" horiz-adv-x="811" 
d="M365 115v1081l-148 -45q-20 -6 -54 -6t-68 32t-34 74q0 86 84 109l217 70q80 23 123 22h4q53 0 89 -36t36 -89v-1212q0 -53 -36 -90q-40 -35 -90 -35t-87 37q-36 37 -36 88z" />
    <glyph glyph-name="two" unicode="2" horiz-adv-x="1255" 
d="M88 128q0 64 66 116l440 374q154 127 211 210q57 84 57 182t-64 158t-167 61q-152 0 -283 -160q-33 -39 -86 -39t-82 35q-35 29 -35 76t29 82q94 115 203 173t272 58q211 0 342 -118t131 -310v-4q0 -160 -83 -274t-289 -281l-295 -246h581q45 0 78 -33q33 -34 33 -78
t-33 -77t-78 -33h-813q-61 0 -96 33q-39 31 -39 95z" />
    <glyph glyph-name="three" unicode="3" horiz-adv-x="1265" 
d="M637 -25q-293 0 -485 187q-41 35 -41 88t36 86q33 37 83 37t85 -33q137 -137 326 -137q102 0 178 59q70 63 70 158v4q0 109 -90 162q-84 59 -240 59h-51q-45 0 -78 31q-31 33 -31 80t54 100l335 358h-520q-43 0 -78 31q-33 33 -32 78q0 45 30 78q33 33 80 33h733
q55 0 91 -31t34 -89q0 -58 -71 -128l-338 -350q176 -20 303 -119q119 -100 119 -283v-4q1 -199 -139 -327t-363 -128z" />
    <glyph glyph-name="four" unicode="4" horiz-adv-x="1396" 
d="M844 528v568l-471 -568h471zM844 109v213h-641q-53 0 -88 32t-35 94q0 60 55 125l674 799q37 46 70 64t84 18t87 -35t35 -86v-805h111q45 0 75 -30q29 -30 29 -74q0 -43 -30 -73t-74 -29h-111v-213q0 -53 -34 -84q-33 -35 -86 -35t-86 35q-35 31 -35 84z" />
    <glyph glyph-name="five" unicode="5" horiz-adv-x="1275" 
d="M618 -25q-246 0 -446 156q-51 39 -51 92t35 92q39 35 84 35t75 -24q152 -121 312 -121q123 -1 201 67t77 181v4q0 106 -82 174q-85 63 -191 63t-185 -24t-85 -25q-47 0 -118 49q-51 37 -49 111l30 516q4 51 36 82t79 31h649q47 0 80 -33t33 -79t-33 -79t-80 -33h-538
l-23 -336q117 41 227 41q221 1 361 -115t139 -335v-4q0 -219 -147 -350q-144 -136 -390 -136z" />
    <glyph glyph-name="six" unicode="6" horiz-adv-x="1343" 
d="M684 195q131 1 209 73t78 185v4q0 111 -82 178q-78 72 -209 72t-213 -72q-80 -74 -80 -180v-4q0 -113 83 -185t214 -71zM682 -25q-240 0 -391 152q-84 84 -129 212t-45 335v4q0 344 161 562t453 218q207 0 359 -102q63 -39 63 -109q0 -45 -35 -84q-39 -33 -77 -33t-72 19
q-121 80 -246 80q-160 0 -244 -127q-90 -121 -100 -328q145 144 351 144t349 -121t144 -330v-4q0 -213 -154 -348q-147 -140 -387 -140z" />
    <glyph glyph-name="seven" unicode="7" horiz-adv-x="1247" 
d="M420 -10q-63 0 -101 30t-38 75q0 44 22 85l557 1032h-620q-47 0 -80 33q-31 33 -31 78t31 78q33 33 80 33h804q51 0 84 -29q31 -31 31 -85t-35 -120l-594 -1126q-47 -84 -110 -84z" />
    <glyph glyph-name="eight" unicode="8" horiz-adv-x="1290" 
d="M346 406q0 -90 81 -153t217 -63t219 62t83 154v4q0 98 -86 157t-215 59t-214 -60t-85 -156v-4zM645 827q111 -1 183 59t73 152v4q0 86 -72 142q-67 59 -183 59t-186 -58t-71 -141v-4q1 -94 73 -154t183 -59zM646 -20q-241 0 -392 114q-156 111 -156 297v4q0 240 258 348
q-209 111 -209 320v4q-1 167 141 277t357 110t356 -111t142 -276v-4q0 -209 -209 -320q258 -117 258 -344v-4q0 -190 -154 -301q-151 -114 -392 -114z" />
    <glyph glyph-name="nine" unicode="9" horiz-adv-x="1343" 
d="M373 971q0 -115 81 -185t214 -71q133 0 209 76q80 74 79 182v4q0 115 -82 190q-84 74 -217 74t-206 -76q-78 -76 -78 -190v-4zM612 -25q-213 0 -387 119q-57 36 -57 94t34 92t78 34t76 -21q126 -88 272 -88t238 125t99 325q-127 -151 -347 -151t-358 125t-139 329v5
q0 213 149 354q152 141 390 141t395 -151q172 -176 172 -547v-4q0 -348 -163 -564t-452 -217z" />
    <glyph glyph-name="colon" unicode=":" horiz-adv-x="571" 
d="M141 152q0 59 41 100q42 41 104 41t103 -41t41 -100v-21q0 -59 -41 -100t-103 -41t-104 41q-41 41 -41 100v21zM141 950q0 60 41 102q42 42 104 42t103 -41t41 -103v-18q0 -60 -41 -102t-103 -42t-104 41q-41 41 -41 103v18z" />
    <glyph glyph-name="semicolon" unicode=";" horiz-adv-x="571" 
d="M72 -240q0 45 47 56q145 47 139 184q-53 16 -82 51q-35 35 -35 88v17q0 59 39 98t104 39q64 0 104 -47t40 -133v-23q0 -197 -100 -299q-90 -88 -193 -88q-63 0 -63 57zM141 950q0 60 41 102q42 42 104 42t103 -41t41 -103v-18q0 -60 -41 -102t-103 -42t-104 41
q-41 41 -41 103v18z" />
    <glyph glyph-name="less" unicode="&#x3c;" horiz-adv-x="1298" 
d="M1032 197q-32 0 -69 16l-740 362q-98 47 -98 138v16q0 90 98 137l740 363q37 16 69 18t66 -30q29 -33 28 -76q0 -70 -69 -103l-674 -315l674 -317q70 -33 69 -105q0 -45 -30 -76q-32 -28 -64 -28z" />
    <glyph glyph-name="equal" unicode="=" horiz-adv-x="1298" 
d="M260 350q-51 0 -80 35q-35 29 -35 80t35 80q29 35 80 35h778q51 0 80 -35q35 -29 35 -80t-35 -80q-29 -35 -80 -35h-778zM260 862q-51 0 -80 35q-35 29 -35 80t35 80q29 35 80 35h778q51 0 80 -35q35 -29 35 -80t-35 -80q-29 -35 -80 -35h-778z" />
    <glyph glyph-name="greater" unicode="&#x3e;" horiz-adv-x="1298" 
d="M268 1245q32 0 68 -16l737 -363q100 -45 101 -137v-16q0 -92 -101 -138l-737 -362q-37 -16 -70 -18t-65 30q-29 33 -29 76q0 70 70 100l673 318l-673 317q-70 33 -70 105q0 45 31 76q33 28 65 28z" />
    <glyph glyph-name="question" unicode="?" horiz-adv-x="1107" 
d="M356 152q0 59 41 100t105 41t104 -41q41 -41 41 -100v-21q0 -59 -41 -100t-104 -41t-105 41q-41 41 -41 100v21zM514 442h-12q-35 0 -60 24t-28 58l-21 176q-6 41 17 70t63 33q299 29 299 221v4q0 90 -64 142t-171 53q-154 0 -279 -113q-35 -29 -80 -29t-78 33
q-32 33 -32 83t41 85q183 170 417 170t367 -113q131 -115 131 -303v-4q0 -344 -414 -414l-8 -94q-6 -34 -30 -58t-58 -24z" />
    <glyph glyph-name="at" unicode="@" horiz-adv-x="2007" 
d="M946 315q104 1 188 97q85 96 85 210q1 114 -61 176t-166 62t-188 -95q-83 -95 -83 -211t59 -181q62 -58 166 -58zM1022 -332q-391 0 -651 262q-262 258 -262 628t260 636q264 264 637 264q184 0 350 -66t284 -180q118 -113 189 -259q70 -146 69 -306q0 -246 -114 -378
t-283 -132q-215 0 -303 144q-137 -143 -306 -143q-170 0 -276 106t-106 280q0 213 141 363q141 149 327 149t286 -151l6 37q18 102 106 102q47 0 77 -37t22 -88l-78 -438q-10 -68 -11 -88q0 -66 42 -106t118 -40q115 0 193 111t78 309q0 291 -236 512q-237 221 -579 221
t-577 -238t-235 -582q0 -342 236 -578t596 -236q262 0 487 127q9 6 21 6t26 -10q23 -45 -10 -57q-241 -144 -524 -144z" />
    <glyph glyph-name="A" unicode="A" horiz-adv-x="1583" 
d="M537 569h503l-252 580zM203 -10q-49 0 -83 34t-34 68t16 72l533 1188q47 102 151 102h13q102 0 149 -102l533 -1188q14 -26 14 -64t-33 -75q-39 -35 -86 -35q-86 0 -123 88l-116 268h-697l-121 -276q-33 -80 -116 -80z" />
    <glyph glyph-name="B" unicode="B" horiz-adv-x="1478" 
d="M432 223h418q133 0 203 51q74 49 73 146v4q0 193 -295 192h-399v-393zM432 829h344q125 -1 198 49t73 146v4q0 86 -66 134t-186 48h-363v-381zM184 127v1180q0 53 37 90t90 37h516q248 0 375 -127q96 -96 96 -238v-4q0 -213 -204 -320q285 -94 284 -348v-4
q0 -189 -144 -291t-386 -102h-537q-53 0 -90 37t-37 90z" />
    <glyph glyph-name="C" unicode="C" horiz-adv-x="1511" 
d="M846 -25q-307 0 -516 213t-209 525v4q0 311 209 526t530 215q281 0 492 -162q49 -37 49 -95t-37 -91q-33 -37 -82 -37t-82 25q-160 129 -352 129q-192 -1 -328 -147q-135 -146 -135 -359v-4q0 -213 135 -361t335 -147q200 0 362 137q35 29 77 29t80 -35q37 -35 37 -85
t-41 -87q-217 -193 -524 -193z" />
    <glyph glyph-name="D" unicode="D" horiz-adv-x="1601" 
d="M436 229h283q223 -1 360 135t138 349v4q1 213 -137 350t-361 137h-283v-975zM184 127v1180q0 53 37 90t90 37h408q336 0 547 -205q215 -203 215 -508v-4q0 -305 -213 -511t-549 -206h-408q-53 0 -90 37t-37 90z" />
    <glyph glyph-name="E" unicode="E" horiz-adv-x="1372" 
d="M311 0q-53 0 -90 37t-37 90v1180q0 53 37 90t90 37h834q47 0 80 -33t33 -80t-34 -80q-32 -33 -79 -33h-709v-372h617q43 0 80 -33q33 -35 33 -81t-34 -79q-32 -33 -79 -33h-617v-385h719q47 -1 80 -33t33 -79t-33 -80t-80 -33h-844z" />
    <glyph glyph-name="F" unicode="F" horiz-adv-x="1343" 
d="M184 115v1192q0 53 37 90t90 37h836q43 0 82 -33q33 -39 33 -82t-33 -82q-39 -33 -82 -33h-711v-391h619q51 0 80 -35q35 -29 35 -80t-35 -80q-29 -35 -80 -34h-619v-469q0 -51 -35 -90q-39 -35 -90 -35t-90 35q-37 37 -37 90z" />
    <glyph glyph-name="G" unicode="G" horiz-adv-x="1605" 
d="M864 -25q-334 0 -536 209q-207 209 -207 529v4q0 307 210 524t512 217t507 -145q51 -39 51 -97t-37 -94q-37 -37 -81 -37t-85 29q-152 113 -350 113t-328 -150q-135 -147 -135 -356v-4q0 -221 135 -369q137 -143 345 -143t354 108v269h-283q-47 0 -80 32t-33 76
q0 45 33 78t80 33h399q53 0 90 -37t37 -90v-383q0 -104 -88 -160q-231 -156 -510 -156z" />
    <glyph glyph-name="H" unicode="H" horiz-adv-x="1556" 
d="M184 115v1204q0 53 37 90q39 35 90 35t90 -35q35 -39 35 -90v-481h684v481q0 51 35 90q39 35 90 35t90 -35q37 -37 37 -90v-1204q0 -53 -37 -90q-39 -35 -90 -35t-90 35q-35 39 -35 90v489h-684v-489q0 -51 -35 -90q-39 -35 -90 -35t-90 35q-37 37 -37 90z" />
    <glyph glyph-name="I" unicode="I" horiz-adv-x="649" 
d="M199 115v1204q0 53 37 90q39 35 89 35t89 -35q37 -37 37 -90v-1204q0 -53 -37 -90q-39 -35 -89 -35t-89 35q-37 37 -37 90z" />
    <glyph glyph-name="J" unicode="J" horiz-adv-x="1146" 
d="M489 213q242 0 242 283v823q0 51 37 88t90 37t90 -37t37 -88v-832q0 -247 -131 -377t-358 -130t-385 157q-43 39 -43 92t34 88q35 35 82 35t82 -28q106 -111 223 -111z" />
    <glyph glyph-name="K" unicode="K" horiz-adv-x="1460" 
d="M184 115v1204q0 53 37 90q39 35 90 35t90 -35q35 -39 35 -90v-606l680 684q42 47 98 47t90 -34t34 -86t-46 -91l-446 -430l483 -600q35 -47 35 -94t-37 -84q-39 -35 -94 -35t-103 59l-460 588l-234 -225v-297q0 -51 -35 -90q-39 -35 -90 -35t-90 35q-37 37 -37 90z" />
    <glyph glyph-name="L" unicode="L" horiz-adv-x="1267" 
d="M184 127v1192q0 53 37 90q39 35 90 35t90 -35q35 -39 35 -90v-1090h649q43 0 82 -32q33 -39 33 -82t-33 -82q-39 -33 -82 -33h-774q-53 0 -90 37t-37 90z" />
    <glyph glyph-name="M" unicode="M" horiz-adv-x="1777" 
d="M184 113v1202q0 53 37 90t90 37h27q74 0 117 -68l434 -680l436 682q41 66 115 66h26q53 0 90 -37t37 -90v-1200q0 -53 -37 -90q-39 -35 -90 -35t-88 37t-37 88v860l-350 -526q-43 -66 -105 -66t-106 66l-348 522v-858q0 -49 -35 -88q-39 -35 -91 -35t-87 37t-35 86z" />
    <glyph glyph-name="N" unicode="N" horiz-adv-x="1617" 
d="M184 113v1202q0 53 37 90t90 37h27q72 0 131 -74l717 -928v881q0 49 35 88q39 35 88 35t88 -35q37 -37 37 -88v-1204q0 -53 -37 -88q-33 -37 -86 -37h-11q-74 0 -131 76l-737 954v-909q0 -49 -35 -88q-39 -35 -88 -35t-88 35q-37 37 -37 88z" />
    <glyph glyph-name="O" unicode="O" horiz-adv-x="1740" 
d="M870 209q211 0 351 145q135 145 135 359v4q0 215 -139 360q-135 150 -347 150t-350 -146q-135 -147 -135 -360v-4q0 -215 139 -361q135 -147 346 -147zM1620 717q0 -305 -212 -523t-539 -219q-327 0 -537 214t-211 524v4q0 305 212 523q211 218 537 218t538 -214
t212 -523v-4z" />
    <glyph glyph-name="P" unicode="P" horiz-adv-x="1368" 
d="M436 688h293q141 0 225 72t84 184v4q0 125 -83 191t-226 65h-293v-516zM184 115v1192q0 53 37 90t90 37h439q252 0 398 -131t146 -349v-4q0 -233 -164 -360q-160 -129 -409 -129h-285v-346q0 -51 -35 -90q-39 -35 -90 -35t-90 35q-37 37 -37 90z" />
    <glyph glyph-name="Q" unicode="Q" horiz-adv-x="1740" 
d="M895 519q0 52 35 89t82 37t90 -37l184 -168q70 119 70 273v4q0 215 -139 360q-135 150 -347 150t-350 -146q-135 -147 -135 -360v-4q0 -215 139 -361q135 -147 348 -147q135 0 248 65l-178 152q-47 41 -47 93zM868 -25q-326 0 -536 214t-211 524v4q0 305 212 523
q211 218 537 218t538 -214t212 -523v-4q0 -242 -145 -441l92 -75q47 -41 47 -93t-35 -90q-35 -36 -85 -36t-87 36l-102 93q-191 -136 -437 -136z" />
    <glyph glyph-name="R" unicode="R" horiz-adv-x="1480" 
d="M436 723h369q133 0 215 65q80 66 80 175v4q0 115 -77 176t-220 61h-367v-481zM184 115v1192q0 53 37 90t90 37h512q268 0 414 -144q119 -121 119 -309v-4q0 -169 -87 -275t-239 -153l275 -346q41 -53 41 -99t-36 -80t-98 -34t-110 65l-348 445h-318v-385q0 -51 -35 -90
q-39 -35 -90 -35t-90 35q-37 37 -37 90z" />
    <glyph glyph-name="S" unicode="S" horiz-adv-x="1310" 
d="M686 -20q-297 0 -539 180q-49 33 -49 87t35 93q37 33 81 33t77 -23q188 -147 401 -147q119 0 185 51q70 49 69 129v4q0 80 -65 127q-66 47 -258 92q-119 31 -203 62q-196 72 -244 200q-31 68 -31 166v4q0 184 138 301q139 115 373 115t434 -133q55 -31 55 -91t-35 -91
q-33 -35 -76 -35t-73 18q-170 109 -330 109q-104 0 -170 -47q-63 -49 -64 -123v-4q0 -82 70 -131q74 -48 291 -100t329 -146q111 -98 111 -268v-4q0 -199 -141 -314q-144 -114 -371 -114z" />
    <glyph glyph-name="T" unicode="T" horiz-adv-x="1327" 
d="M537 115v1085h-349q-51 0 -82 35q-35 33 -34 82q0 49 34 82q31 35 82 35h953q49 0 80 -35q35 -33 35 -82t-35 -82q-31 -35 -80 -35h-350v-1085q0 -51 -37 -88t-90 -37t-91 37q-36 37 -36 88z" />
    <glyph glyph-name="U" unicode="U" horiz-adv-x="1550" 
d="M1389 621q0 -313 -164 -479t-451 -165q-287 0 -450 162q-162 166 -162 469v711q0 53 37 90q39 35 89 35t89 -35q37 -37 37 -90v-701q0 -193 94 -303q98 -104 268 -104t265 101t96 296v711q0 53 37 90q39 35 89 35t89 -35q37 -37 37 -90v-698z" />
    <glyph glyph-name="V" unicode="V" horiz-adv-x="1501" 
d="M743 -20q-100 0 -143 102l-502 1180q-14 30 -14 70t37 77q39 35 90 35q94 0 129 -90l414 -1035l420 1043q12 38 46 60t80 22t82 -35q37 -35 37 -73t-12 -66l-504 -1188q-43 -102 -145 -102h-15z" />
    <glyph glyph-name="W" unicode="W" horiz-adv-x="2250" 
d="M86 1336q0 36 37 73q41 35 89 35t82 -27t46 -65l330 -985l323 981q33 100 127 100h19q96 0 127 -100l323 -981l330 987q35 90 123 90q49 0 87 -34t38 -73t-13 -65l-423 -1188q-37 -104 -132 -104h-24q-92 0 -129 104l-320 936l-319 -936q-37 -104 -131 -104h-25
q-90 0 -131 104l-424 1188q-10 28 -10 64z" />
    <glyph glyph-name="X" unicode="X" horiz-adv-x="1462" 
d="M111 103q0 46 36 98l426 528l-401 498q-39 51 -39 99t35 83q40 35 100 35t105 -62l362 -477l359 469q51 70 123 70q47 0 81 -34t33 -82q0 -48 -39 -95l-401 -500l422 -526q39 -51 39 -100t-36 -83t-96 -34t-108 61l-385 502l-379 -494q-51 -70 -123 -69q-47 0 -81 34
t-33 79z" />
    <glyph glyph-name="Y" unicode="Y" horiz-adv-x="1425" 
d="M588 115v442l-494 678q-28 45 -28 93t38 82t99 34q62 0 112 -76l400 -575l405 577q50 76 112 76t97 -36t35 -83t-35 -94l-489 -670v-448q0 -53 -37 -90q-39 -35 -90 -35t-90 35q-35 39 -35 90z" />
    <glyph glyph-name="Z" unicode="Z" horiz-adv-x="1437" 
d="M238 0q-47 0 -80 33t-33 78v6q0 63 47 116l807 977h-719q-45 0 -78 33t-32 78q0 45 32 80q37 33 78 33h942q45 0 80 -33q33 -37 33 -78v-6q0 -59 -45 -117l-809 -977h745q47 0 80 -33q33 -32 33 -78t-33 -79t-80 -33h-968z" />
    <glyph glyph-name="bracketleft" unicode="[" horiz-adv-x="931" 
d="M180 -143v1454q0 51 35 87t86 36h422q39 0 69 -29t30 -69t-30 -68q-28 -28 -69 -29h-305v-1311h305q41 0 70 -28t29 -69q0 -40 -30 -69t-69 -28h-422q-51 0 -86 36t-35 87z" />
    <glyph glyph-name="backslash" unicode="\" horiz-adv-x="1067" 
d="M1067 -183q0 -30 -29 -63q-31 -27 -69 -26q-61 0 -88 57l-840 1716q-10 35 -10 59t28 58q31 27 68 27q63 0 90 -58l838 -1716q12 -24 12 -54z" />
    <glyph glyph-name="bracketright" unicode="]" horiz-adv-x="931" 
d="M752 1311v-1454q0 -51 -36 -87t-87 -36h-422q-39 0 -68 28t-29 68q0 39 29 72q31 27 68 26h307v1311h-307q-37 0 -68 27q-29 34 -29 72t29 67t68 29h422q51 0 87 -36t36 -87z" />
    <glyph glyph-name="asciicircum" unicode="^" horiz-adv-x="1024" 
d="M158 1040q0 29 24 62l195 266q53 74 125 74h18q72 0 127 -74l195 -266q23 -35 22 -62q0 -41 -52 -41q-52 1 -83 19t-72 72l-147 190l-148 -190q-41 -53 -71 -72q-31 -18 -82 -18t-51 40z" />
    <glyph glyph-name="underscore" unicode="_" horiz-adv-x="1228" 
d="M-4 -328q-37 0 -70 29q-27 31 -26 68q0 37 26 67q33 29 70 29h1237q37 0 70 -29q27 -32 27 -68t-27 -67q-33 -29 -70 -29h-1237z" />
    <glyph glyph-name="grave" unicode="`" horiz-adv-x="1024" 
d="M590 1208q-74 0 -133 56l-140 131q-74 65 15 116q45 25 102 25t94 -59l117 -181q18 -27 19 -45q0 -43 -74 -43z" />
    <glyph glyph-name="a" unicode="a" horiz-adv-x="1202" 
d="M326 322q0 -74 58 -119t166 -45t193 63q82 68 82 168v74q-111 43 -237 43t-195 -47q-68 -49 -67 -133v-4zM821 645q0 234 -268 236q-131 0 -240 -43q-66 -20 -112 22q-31 31 -31 74q0 70 68 98q166 63 348 64q242 0 358 -121q117 -115 117 -334v-532q0 -53 -35 -84
q-33 -35 -85 -35t-89 30q-33 33 -33 74v41q-133 -158 -352 -158q-159 1 -271 91t-112 243v4q0 172 121 258q117 91 298 91t318 -46v27z" />
    <glyph glyph-name="b" unicode="b" 
d="M712 193q128 0 222 94q88 100 88 252v4q0 154 -90 250t-219 96t-221 -98q-94 -94 -95 -248v-4q0 -154 95 -248q92 -98 220 -98zM156 113v1269q0 49 34 88q36 35 88 35t91 -35q35 -39 34 -88v-481q145 203 357 203t364 -151q150 -151 150 -410v-4q0 -256 -149 -409
t-363 -153t-359 191v-55q0 -51 -36 -88q-39 -35 -89 -35t-86 36t-36 87z" />
    <glyph glyph-name="c" unicode="c" horiz-adv-x="1169" 
d="M650 -25q-238 0 -394 164q-160 160 -160 396v4q0 236 162 399q160 166 391 166t389 -135q39 -33 39 -81t-33 -85q-34 -33 -78 -33t-77 25q-111 92 -239 92q-128 1 -217 -101t-89 -243v-4q0 -143 90 -246q92 -100 226 -100t249 96q29 27 71 27t73 -32t31 -79t-35 -76
q-161 -154 -399 -154z" />
    <glyph glyph-name="d" unicode="d" 
d="M975 543q0 154 -92 250t-223 96q-130 0 -220 -95t-90 -251v-4q0 -154 91 -250t221 -96t221 96q92 96 92 250v4zM1219 1382v-1269q0 -49 -35 -88q-39 -35 -90 -35t-87 36t-36 87v67q-143 -203 -357 -203t-364 152t-150 410v4q0 260 150 409q147 152 362 152t359 -191v469
q0 51 36 87t87 36t90 -35q35 -39 35 -88z" />
    <glyph glyph-name="e" unicode="e" horiz-adv-x="1236" 
d="M96 537v4q0 239 151 401t378 162q168 0 284 -84q121 -80 175 -200t55 -249q0 -51 -34 -85t-83 -33h-678q20 -129 104 -202t218 -73q132 0 245 94q29 23 67 23t66 -29q28 -30 29 -72q0 -42 -33 -75q-158 -143 -392 -143t-394 155q-158 162 -158 406zM626 901
q-114 0 -192 -78q-76 -80 -92 -207h555q-12 123 -84 204q-73 81 -187 81z" />
    <glyph glyph-name="f" unicode="f" horiz-adv-x="770" 
d="M211 113v755h-43q-41 0 -74 29q-31 31 -31 74t31 73t74 31h43v80q0 178 87 265t245 87q59 0 107 -6t76 -35q28 -30 28 -72t-31 -73t-71 -28t-54 3q-143 0 -143 -163v-60h192q45 0 75 -30q30 -31 30 -73t-31 -73q-33 -29 -74 -29h-188v-755q0 -51 -37 -88q-39 -35 -88 -35
t-88 35q-35 39 -35 88z" />
    <glyph glyph-name="g" unicode="g" 
d="M657 297q129 0 223 83t95 214v4q0 131 -94 214q-93 83 -225 83t-218 -84q-88 -80 -88 -213v-4q0 -131 89 -214t218 -83zM1219 221q0 -553 -582 -553q-215 0 -418 96q-70 27 -69 99q0 41 30 71t62 31q32 0 57 -10q154 -86 325 -86t260 84t89 248v84q-154 -199 -370 -199
t-357 139q-145 135 -146 367v4q0 229 146 369q150 139 360 139t365 -184v51q0 53 37 86q33 37 86 37t90 -37q35 -39 35 -88v-748z" />
    <glyph glyph-name="h" unicode="h" horiz-adv-x="1269" 
d="M156 113v1269q0 51 36 87t86 36t89 -35q37 -37 36 -88v-467q133 189 327 189t294 -113q102 -113 102 -301v-577q0 -49 -34 -88q-35 -35 -87 -35t-92 35q-35 39 -34 88v501q0 125 -60 197q-61 68 -171 68t-178 -71t-67 -198v-497q0 -49 -34 -88q-39 -35 -90 -35t-87 36
t-36 87z" />
    <glyph glyph-name="i" unicode="i" horiz-adv-x="585" 
d="M170 113v856q0 53 36 89t87 36t88 -37t37 -88v-856q0 -51 -36 -87t-87 -36t-90 35q-35 39 -35 88zM152 1360v12q0 55 41 88q35 33 101 33t99 -33q41 -33 41 -88v-12q0 -55 -40 -89t-101 -34t-101 34t-40 89z" />
    <glyph glyph-name="j" unicode="j" horiz-adv-x="585" 
d="M152 1360v12q0 55 41 88q35 33 101 33t99 -33q41 -33 41 -88v-12q0 -55 -40 -89t-101 -34t-101 34t-40 89zM119 -334h-19q-135 2 -135 103q0 45 29 73t69 29q4 0 9 -2h6q92 0 92 117v983q0 53 36 89t87 36t88 -37t37 -88v-983q0 -158 -78 -240q-80 -80 -221 -80z" />
    <glyph glyph-name="k" unicode="k" horiz-adv-x="1187" 
d="M156 113v1269q0 51 36 87t86 36t89 -35q37 -37 36 -88v-798l465 456q54 54 104 54t81 -33t31 -82t-56 -102l-287 -265l328 -428q33 -45 33 -86t-33 -78q-37 -30 -93 -30t-99 55l-310 412l-164 -156v-188q0 -49 -34 -88q-39 -35 -90 -35t-87 36t-36 87z" />
    <glyph glyph-name="l" unicode="l" horiz-adv-x="585" 
d="M170 113v1269q0 49 35 88q39 35 88 35t88 -35q37 -37 37 -88v-1269q0 -51 -36 -87t-87 -36t-90 35q-35 39 -35 88z" />
    <glyph glyph-name="m" unicode="m" horiz-adv-x="1945" 
d="M156 113v856q0 55 37 88q33 37 86 37t90 -37q35 -39 34 -88v-51q135 186 330 186q229 0 324 -191q143 190 364 191q175 0 277 -108t102 -306v-577q0 -49 -35 -88q-39 -35 -90 -35t-87 36t-36 87v501q0 131 -57 198t-161 67t-169 -72q-63 -66 -63 -197v-497q0 -51 -36 -87
t-87 -36t-90 35q-35 39 -35 88v503q0 125 -57 195q-59 68 -161 68t-168 -72q-64 -72 -65 -197v-497q0 -49 -34 -88q-39 -35 -90 -35t-87 36t-36 87z" />
    <glyph glyph-name="n" unicode="n" horiz-adv-x="1269" 
d="M156 113v856q0 55 37 88q33 37 86 37t90 -37q35 -39 34 -88v-54q133 189 327 189t294 -113q102 -113 102 -301v-577q0 -49 -34 -88q-35 -35 -87 -35t-92 35q-35 39 -34 88v501q0 125 -60 197q-61 68 -171 68t-178 -71t-67 -198v-497q0 -49 -34 -88q-39 -35 -90 -35
t-87 36t-36 87z" />
    <glyph glyph-name="o" unicode="o" horiz-adv-x="1345" 
d="M344 539q0 -147 94 -247t240 -99q146 0 234 100t89 242v4q0 145 -94 247q-96 100 -240 100q-143 0 -233 -100t-90 -243v-4zM669 -25q-247 0 -409 164q-164 160 -164 396v4q0 237 166 401t411 164t411 -164t165 -397v-4q0 -233 -166 -400q-167 -164 -414 -164z" />
    <glyph glyph-name="p" unicode="p" 
d="M712 193q128 0 222 94q88 100 88 252v4q0 154 -90 250t-219 96t-221 -98q-94 -94 -95 -248v-4q0 -154 95 -248q92 -98 220 -98zM156 -215v1184q0 55 37 88q33 37 86 37t90 -37q35 -39 34 -88v-68q145 203 357 203t364 -151q150 -151 150 -410v-4q0 -256 -149 -409
t-363 -153t-359 191v-383q0 -49 -34 -88q-39 -35 -90 -35t-87 36t-36 87z" />
    <glyph glyph-name="q" unicode="q" 
d="M975 543q0 154 -92 250t-223 96q-130 0 -220 -95t-90 -251v-4q0 -154 91 -250t221 -96t221 96q92 96 92 250v4zM1219 969v-1184q0 -49 -35 -88q-39 -35 -90 -35t-87 36t-36 87v395q-143 -203 -357 -203t-364 152t-150 410v4q0 260 150 409q147 152 362 152t359 -191v58
q0 53 37 86q33 37 86 37t90 -37q35 -39 35 -88z" />
    <glyph glyph-name="r" unicode="r" horiz-adv-x="845" 
d="M156 113v856q0 55 37 88q33 37 86 37t90 -37q35 -39 34 -88v-111q47 109 119 170q74 68 142 68t102 -33q33 -33 33 -86t-29 -84q-23 -29 -70 -39q-137 -25 -217 -130t-80 -292v-319q0 -51 -36 -88q-39 -35 -89 -35t-86 36t-36 87z" />
    <glyph glyph-name="s" unicode="s" horiz-adv-x="1026" 
d="M526 -20q-223 0 -411 129q-47 25 -47 75t28 82q29 29 66 29t59 -14q156 -104 311 -105q82 0 123 33q45 31 45 84v4q0 80 -217 143q-4 2 -9 3t-80 25t-163 77q-51 35 -84 92q-27 59 -26 129v4q0 150 108 240q113 90 283 90t334 -88q59 -31 59 -84t-28 -82q-33 -29 -66 -29
t-57 12q-144 74 -234 74t-131 -30t-41 -76v-4q0 -51 56 -81t118 -50q131 -41 191 -68q45 -16 101 -55q114 -79 114 -215v-5q0 -163 -113 -251t-289 -88z" />
    <glyph glyph-name="t" unicode="t" horiz-adv-x="841" 
d="M664 209q26 0 59 -29q31 -31 31 -74q0 -68 -66 -96q-86 -28 -170 -28q-311 0 -311 317v569h-41q-45 0 -76 31t-31 76t31 76t76 30h41v185q0 53 37 88t89 35t85 -37q37 -33 37 -86v-185h194q45 -1 77 -31t32 -75t-32 -76t-77 -31h-194v-530q0 -135 133 -135l39 2
q11 4 37 4z" />
    <glyph glyph-name="u" unicode="u" horiz-adv-x="1269" 
d="M1116 969v-856q0 -51 -37 -88q-39 -35 -88 -35t-88 35q-37 37 -37 88v55q-128 -190 -324 -190t-297 113q-101 114 -102 302v576q0 51 37 88q33 37 86 37t90 -37q35 -39 35 -88v-502q1 -123 61 -193t168 -70t179 70q68 74 67 197v498q0 49 35 88q37 37 89 37t89 -37
t37 -88z" />
    <glyph glyph-name="v" unicode="v" horiz-adv-x="1200" 
d="M594 -20q-94 0 -141 108l-361 825q-14 41 -14 76t37 70t86 35q86 0 123 -90l278 -717l283 721q37 86 116 86q49 0 86 -33q35 -39 35 -79t-14 -67l-360 -827q-49 -109 -142 -108h-12z" />
    <glyph glyph-name="w" unicode="w" horiz-adv-x="1746" 
d="M518 -18q-100 0 -137 110l-291 823q-12 35 -12 71t33 75q39 33 88 33q90 0 120 -99l209 -655l211 655q31 98 127 99h15q96 0 127 -99l213 -655l211 657q29 96 120 97q49 0 83 -34t34 -68t-10 -68l-295 -832q-41 -111 -137 -110h-8q-102 0 -136 106l-211 643l-213 -643
q-33 -106 -133 -106h-8z" />
    <glyph glyph-name="x" unicode="x" horiz-adv-x="1173" 
d="M98 96q0 43 35 84l307 369l-284 338q-41 53 -41 97t32 81q37 31 93 31t104 -62l244 -319l248 317q49 64 103 64t87 -32t33 -76t-35 -85l-293 -350l303 -358q41 -53 41 -99t-33 -79q-33 -31 -92 -31t-104 63l-262 338l-262 -338q-50 -63 -102 -63t-89 30q-33 37 -33 80z
" />
    <glyph glyph-name="y" unicode="y" horiz-adv-x="1202" 
d="M370 -334q-112 0 -190 30t-78 103q0 45 31 74t62 29t67 -11t83 -11q48 0 77 26q35 23 65 88l9 22l-402 897q-14 31 -14 71t35 75t88 35q84 0 121 -95l290 -718l271 718q37 94 119 95q47 0 83 -33q35 -39 35 -74t-10 -69l-395 -949q-72 -167 -153 -235q-82 -68 -194 -68z
" />
    <glyph glyph-name="z" unicode="z" horiz-adv-x="1146" 
d="M221 0q-51 0 -86 29t-35 71v4q0 59 56 119l575 656h-510q-43 -1 -73 29t-29 71q0 41 28 74q33 29 74 28h713q51 1 85 -27t34 -71v-6q0 -59 -54 -119l-577 -655h532q43 0 73 -30t30 -71t-29 -73q-33 -29 -74 -29h-733z" />
  </font>
</defs>
</svg>
